<?xml version="1.0" encoding="utf-8"?>
<!-- Generator: Adobe Illustrator 23.0.0, SVG Export Plug-In . SVG Version: 6.00 Build 0)  -->
<svg version="1.1" id="Capa_1" xmlns="http://www.w3.org/2000/svg" xmlns:xlink="http://www.w3.org/1999/xlink" x="0px" y="0px"
	 viewBox="0 0 366 194" enable-background="new 0 0 366 194" xml:space="preserve">
<g>
	<g>
		<path fill="#2B388F" d="M9.06,103.58l-0.04-27.4h9.78c1.6,0,3.08,0.35,4.45,1.05c1.36,0.7,2.44,1.64,3.25,2.82
			c0.8,1.18,1.2,2.47,1.2,3.88c0,1.38-0.4,2.66-1.2,3.86c-0.8,1.19-1.88,2.14-3.25,2.85c-1.36,0.7-2.85,1.05-4.45,1.05h-7.84v11.89
			H9.06z M10.96,89.71h7.84c1.26,0,2.43-0.26,3.5-0.78c1.07-0.52,1.92-1.22,2.55-2.11c0.63-0.89,0.95-1.85,0.95-2.89
			c0-1.07-0.32-2.05-0.95-2.93c-0.63-0.89-1.48-1.59-2.55-2.11c-1.07-0.52-2.23-0.78-3.5-0.78h-7.88L10.96,89.71z"/>
		<path fill="#2B388F" d="M46.92,103.58L35.54,89.75h3.37c2.08,0,3.77-0.27,5.06-0.8c0.95-0.45,1.78-1.13,2.49-2.04
			c0.7-0.91,1.05-1.92,1.05-3.01c0-0.98-0.3-1.92-0.89-2.8c-0.59-0.89-1.43-1.61-2.53-2.17c-1.1-0.56-2.36-0.84-3.79-0.84h-7.67
			v25.5h-1.9v-27.4h9.57c1.29,0,2.5,0.2,3.63,0.61c1.12,0.41,2.11,0.99,2.95,1.75c0.81,0.73,1.44,1.56,1.88,2.49
			c0.44,0.93,0.65,1.88,0.65,2.87c0,1.55-0.46,2.93-1.39,4.15c-0.93,1.22-2.02,2.1-3.29,2.64c-0.87,0.39-1.72,0.64-2.55,0.74
			c-0.83,0.1-1.71,0.15-2.64,0.15l9.91,12.01H46.92z"/>
		<path fill="#2B388F" d="M53.41,103.58v-27.4h17.75v1.94H55.31v10.79h12.35v1.94H55.31v10.75h15.85v1.98H53.41z"/>
		<path fill="#2B388F" d="M87.13,103.88c-2.5,0-4.82-0.63-6.96-1.9c-2.14-1.26-3.82-2.97-5.06-5.12c-1.24-2.15-1.85-4.49-1.85-7.02
			c0-2.53,0.62-4.86,1.85-7c1.24-2.14,2.92-3.84,5.06-5.1c2.14-1.26,4.45-1.9,6.96-1.9c1.94,0,3.8,0.4,5.59,1.2
			c1.78,0.8,3.35,1.93,4.7,3.39l-1.48,1.31c-1.12-1.26-2.45-2.25-3.98-2.95c-1.53-0.7-3.14-1.05-4.83-1.05
			c-2.16,0-4.16,0.54-5.99,1.62c-1.83,1.08-3.28,2.55-4.36,4.41c-1.08,1.85-1.62,3.88-1.62,6.07s0.54,4.22,1.62,6.07
			c1.08,1.85,2.54,3.32,4.36,4.41c1.83,1.08,3.82,1.62,5.99,1.62c1.8,0,3.51-0.39,5.12-1.18c1.62-0.79,3-1.88,4.15-3.29l1.52,1.18
			c-1.32,1.66-2.92,2.94-4.81,3.86C91.24,103.42,89.24,103.88,87.13,103.88z"/>
		<path fill="#2B388F" d="M101.21,103.58v-27.4h1.9v27.4H101.21z"/>
		<path fill="#2B388F" d="M125.73,92.98c0.72,1.05,1.07,2.19,1.07,3.39c0,1.04-0.25,2.03-0.76,2.97c-0.51,0.94-1.24,1.76-2.19,2.47
			c-1.97,1.41-4.26,2.11-6.87,2.11c-1.29,0-2.53-0.18-3.71-0.55c-1.18-0.37-2.23-0.89-3.16-1.56c-1.6-1.18-2.57-2.63-2.91-4.34
			l1.81-1.01c0.08,1.55,0.84,2.81,2.28,3.79c0.73,0.56,1.59,0.99,2.57,1.29c0.98,0.29,2.02,0.44,3.12,0.44
			c2.25,0,4.15-0.58,5.69-1.73c1.49-1.1,2.23-2.39,2.23-3.88c0-0.87-0.27-1.69-0.82-2.44c-0.55-0.76-1.31-1.4-2.3-1.94
			c-0.93-0.48-2.59-0.86-4.97-1.14c-0.2-0.03-0.91-0.14-2.13-0.34c-1.22-0.2-2.27-0.51-3.14-0.93c-1.38-0.67-2.46-1.57-3.25-2.68
			c-0.79-1.11-1.18-2.31-1.18-3.6c0-1.04,0.26-2.02,0.78-2.93c0.52-0.91,1.26-1.72,2.21-2.42c0.93-0.67,1.98-1.19,3.16-1.56
			c1.18-0.36,2.42-0.55,3.71-0.55c2.61,0,4.9,0.7,6.87,2.11c1.63,1.24,2.59,2.67,2.87,4.3l-1.81,1.01c-0.03-0.7-0.23-1.38-0.61-2.02
			c-0.38-0.65-0.92-1.24-1.62-1.77c-0.76-0.56-1.63-0.99-2.61-1.29c-0.98-0.3-2.01-0.44-3.08-0.44c-1.07,0-2.1,0.15-3.1,0.44
			c-1,0.29-1.86,0.72-2.59,1.29c-0.73,0.53-1.29,1.13-1.69,1.79c-0.39,0.66-0.59,1.34-0.59,2.04c0,0.87,0.32,1.74,0.97,2.59
			c0.65,0.86,1.45,1.53,2.4,2c0.59,0.28,1.24,0.48,1.96,0.61c0.72,0.13,1.64,0.26,2.76,0.4c0.2,0.03,0.69,0.1,1.48,0.21
			c0.79,0.11,1.55,0.27,2.28,0.46c0.73,0.2,1.35,0.44,1.85,0.72C124.01,91.03,125.01,91.93,125.73,92.98z"/>
		<path fill="#2B388F" d="M131.06,103.58v-27.4h1.9v27.4H131.06z"/>
		<path fill="#2B388F" d="M150.32,103.88c-2.5,0-4.82-0.62-6.96-1.88c-2.14-1.25-3.82-2.95-5.06-5.1c-1.24-2.15-1.85-4.49-1.85-7.02
			c0-2.53,0.62-4.87,1.85-7.02c1.24-2.15,2.92-3.85,5.06-5.1c2.14-1.25,4.45-1.88,6.96-1.88c2.5,0,4.82,0.63,6.96,1.88
			c2.14,1.25,3.82,2.95,5.06,5.1c1.24,2.15,1.85,4.49,1.85,7.02c0,2.53-0.62,4.87-1.85,7.02c-1.24,2.15-2.92,3.85-5.06,5.1
			C155.14,103.25,152.82,103.88,150.32,103.88z M150.32,77.82c-2.16,0-4.16,0.54-5.99,1.62c-1.83,1.08-3.28,2.54-4.36,4.38
			c-1.08,1.84-1.62,3.86-1.62,6.05c0,2.19,0.54,4.21,1.62,6.05c1.08,1.84,2.54,3.3,4.36,4.38c1.83,1.08,3.82,1.62,5.99,1.62
			c2.16,0,4.16-0.54,5.99-1.62c1.83-1.08,3.27-2.54,4.34-4.38c1.07-1.84,1.6-3.86,1.6-6.05c0-2.19-0.53-4.21-1.6-6.05
			c-1.07-1.84-2.51-3.3-4.34-4.38C154.48,78.37,152.49,77.82,150.32,77.82z"/>
		<path fill="#2B388F" d="M168.87,81.32v22.26h-1.9V75.84l18.97,22.68V76.18h1.9v27.86L168.87,81.32z"/>
		<path fill="#2B388F" d="M70.99,127.42H54.8v12.73h-1.94v-14.67v-12.73h1.94v12.73h16.19v-12.73h1.9v13.66v13.74h-1.9V127.42z"/>
		<path fill="#2B388F" d="M77.65,140.15v-27.4H95.4v1.94H79.55v10.79H91.9v1.94H79.55v10.75H95.4v1.98H77.65z"/>
		<path fill="#2B388F" d="M103.28,133.2l-3.25,6.96h-2.11l12.9-27.74l12.18,27.74h-2.07l-3.08-6.96H103.28z M110.74,117.1
			l-6.58,14.21h12.86L110.74,117.1z"/>
		<path fill="#2B388F" d="M125.58,140.15v-27.4h1.9v25.5h15.39v1.9H125.58z"/>
		<path fill="#2B388F" d="M164.99,112.75v1.94h-10.83v25.46h-1.94v-25.46h-10.88v-1.94H164.99z"/>
		<path fill="#2B388F" d="M185.9,127.42h-16.19v12.73h-1.94v-14.67v-12.73h1.94v12.73h16.19v-12.73h1.9v13.66v13.74h-1.9V127.42z"/>
		<path fill="#2B388F" d="M62.89,177.02c-2.5,0-4.82-0.63-6.96-1.9c-2.14-1.26-3.82-2.97-5.06-5.12c-1.24-2.15-1.85-4.49-1.85-7.02
			c0-2.53,0.62-4.86,1.85-7c1.24-2.14,2.92-3.84,5.06-5.1c2.14-1.26,4.45-1.9,6.96-1.9c1.94,0,3.8,0.4,5.59,1.2
			c1.78,0.8,3.35,1.93,4.7,3.39l-1.48,1.31c-1.12-1.26-2.45-2.25-3.98-2.95c-1.53-0.7-3.14-1.05-4.83-1.05
			c-2.16,0-4.16,0.54-5.99,1.62c-1.83,1.08-3.28,2.55-4.36,4.41c-1.08,1.85-1.62,3.88-1.62,6.07c0,2.19,0.54,4.22,1.62,6.07
			c1.08,1.85,2.54,3.32,4.36,4.41c1.83,1.08,3.82,1.62,5.99,1.62c1.8,0,3.51-0.39,5.12-1.18c1.62-0.79,3-1.88,4.15-3.29l1.52,1.18
			c-1.32,1.66-2.92,2.94-4.81,3.86C67,176.57,65,177.02,62.89,177.02z"/>
		<path fill="#2B388F" d="M76.47,176.73v-27.4h17.75v1.94H78.36v10.79h12.35V164H78.36v10.75h15.85v1.98H76.47z"/>
		<path fill="#2B388F" d="M99.99,154.47v22.26h-1.9v-27.74l18.97,22.68v-22.34h1.9v27.87L99.99,154.47z"/>
		<path fill="#2B388F" d="M145.14,149.33v1.94H134.3v25.46h-1.94v-25.46h-10.88v-1.94H145.14z"/>
		<path fill="#2B388F" d="M147.88,176.73v-27.4h17.75v1.94h-15.85v10.79h12.35V164h-12.35v10.75h15.85v1.98H147.88z"/>
		<path fill="#2B388F" d="M185.65,176.73l-11.38-13.83h3.37c2.08,0,3.77-0.27,5.06-0.8c0.96-0.45,1.78-1.13,2.49-2.04
			c0.7-0.91,1.05-1.92,1.05-3.01c0-0.98-0.3-1.92-0.89-2.8c-0.59-0.89-1.43-1.61-2.53-2.17c-1.1-0.56-2.36-0.84-3.79-0.84h-7.67
			v25.5h-1.9v-27.4h9.57c1.29,0,2.5,0.2,3.63,0.61s2.11,0.99,2.95,1.75c0.81,0.73,1.44,1.56,1.88,2.49
			c0.44,0.93,0.65,1.88,0.65,2.87c0,1.55-0.46,2.93-1.39,4.15c-0.93,1.22-2.02,2.1-3.29,2.63c-0.87,0.39-1.72,0.64-2.55,0.74
			c-0.83,0.1-1.71,0.15-2.63,0.15l9.91,12.01H185.65z"/>
	</g>
	<g>
		<path fill="#1A78BD" d="M259.81,137.82c0,0.37-0.05,0.73-0.15,1.07c-0.1,0.34-0.25,0.65-0.43,0.94c-0.18,0.29-0.4,0.54-0.66,0.77
			c-0.26,0.23-0.55,0.42-0.86,0.57l2.11,3.27h-2.11l-1.87-2.9h-1.21l0.72-1.77h0.77c0.53,0,0.99-0.19,1.37-0.57
			c0.18-0.19,0.31-0.4,0.41-0.63c0.1-0.24,0.15-0.48,0.15-0.74c0-0.26-0.05-0.5-0.15-0.74c-0.1-0.24-0.24-0.44-0.41-0.62
			c-0.38-0.38-0.84-0.58-1.37-0.58h-2.09v0.97v2.9v1.77v2.9h-1.77v-2.9v-4.67v-2.74h3.86c0.51,0,0.99,0.1,1.44,0.29
			c0.45,0.2,0.84,0.46,1.17,0.8c0.33,0.33,0.6,0.73,0.8,1.17C259.71,136.83,259.81,137.31,259.81,137.82z"/>
		<path fill="#1A78BD" d="M267.68,141.64h-3.86c0.1,0.23,0.24,0.43,0.43,0.6c0.21,0.21,0.44,0.36,0.69,0.46
			c0.26,0.1,0.53,0.15,0.81,0.15c0.4,0,0.76-0.09,1.08-0.28l1.84,0.74c-0.35,0.41-0.78,0.74-1.28,0.97
			c-0.5,0.23-1.05,0.35-1.64,0.35c-0.54,0-1.05-0.1-1.52-0.3c-0.47-0.2-0.88-0.48-1.24-0.83c-0.35-0.35-0.63-0.77-0.83-1.24
			c-0.2-0.47-0.3-0.97-0.3-1.5c0-0.54,0.1-1.05,0.3-1.52c0.2-0.47,0.48-0.88,0.83-1.24c0.35-0.35,0.77-0.63,1.24-0.83
			c0.47-0.2,0.98-0.3,1.52-0.3c0.54,0,1.05,0.1,1.52,0.3c0.47,0.2,0.89,0.48,1.24,0.83c0.35,0.35,0.63,0.77,0.83,1.24
			c0.2,0.47,0.3,0.98,0.3,1.52c0,0.31-0.03,0.61-0.1,0.88H267.68z M265.75,138.63c-0.57,0-1.07,0.21-1.5,0.62
			c-0.19,0.19-0.33,0.39-0.43,0.62h3.86c-0.1-0.23-0.24-0.43-0.43-0.62C266.84,138.84,266.34,138.63,265.75,138.63z"/>
		<path fill="#1A78BD" d="M279.78,143.71c0,0.53-0.1,1.03-0.3,1.5c-0.2,0.47-0.48,0.88-0.83,1.24c-0.35,0.35-0.77,0.63-1.24,0.84
			c-0.47,0.21-0.98,0.31-1.52,0.31c-0.44,0-0.86-0.07-1.25-0.21c-0.39-0.14-0.76-0.33-1.09-0.59l1.28-1.27
			c0.31,0.2,0.67,0.29,1.06,0.29c0.6,0,1.1-0.21,1.5-0.63c0.41-0.41,0.62-0.91,0.62-1.49v-2.96c0-0.57-0.21-1.07-0.62-1.5
			c-0.41-0.41-0.91-0.62-1.5-0.62c-0.57,0-1.07,0.21-1.5,0.62c-0.41,0.43-0.62,0.93-0.62,1.5c0,0.59,0.21,1.09,0.62,1.5
			c0.43,0.41,0.93,0.62,1.5,0.62c0.29,0,0.56-0.05,0.8-0.15l0.66,1.65c-0.44,0.18-0.92,0.27-1.43,0.27h-0.03
			c-0.53,0-1.03-0.1-1.5-0.3c-0.47-0.2-0.88-0.48-1.24-0.83c-0.35-0.35-0.63-0.77-0.84-1.24c-0.21-0.47-0.31-0.98-0.31-1.52
			c0-0.54,0.09-1.05,0.27-1.52c0.18-0.47,0.42-0.88,0.74-1.24c0.32-0.35,0.7-0.63,1.15-0.83c0.45-0.2,0.94-0.3,1.47-0.3
			c0.51,0,0.96,0.08,1.36,0.23c0.39,0.15,0.74,0.34,1.03,0.57v-0.58h1.77V143.71z"/>
		<path fill="#1A78BD" d="M288.04,141.64h-3.86c0.1,0.23,0.24,0.43,0.43,0.6c0.21,0.21,0.44,0.36,0.69,0.46
			c0.26,0.1,0.53,0.15,0.81,0.15c0.4,0,0.76-0.09,1.08-0.28l1.84,0.74c-0.35,0.41-0.78,0.74-1.28,0.97
			c-0.5,0.23-1.05,0.35-1.64,0.35c-0.54,0-1.05-0.1-1.52-0.3c-0.47-0.2-0.88-0.48-1.24-0.83c-0.35-0.35-0.63-0.77-0.83-1.24
			c-0.2-0.47-0.3-0.97-0.3-1.5c0-0.54,0.1-1.05,0.3-1.52c0.2-0.47,0.48-0.88,0.83-1.24c0.35-0.35,0.77-0.63,1.24-0.83
			c0.47-0.2,0.98-0.3,1.52-0.3c0.54,0,1.05,0.1,1.52,0.3c0.47,0.2,0.88,0.48,1.24,0.83c0.35,0.35,0.63,0.77,0.83,1.24
			c0.2,0.47,0.3,0.98,0.3,1.52c0,0.31-0.03,0.61-0.1,0.88H288.04z M286.11,138.63c-0.57,0-1.07,0.21-1.5,0.62
			c-0.19,0.19-0.33,0.39-0.43,0.62h3.86c-0.1-0.23-0.24-0.43-0.43-0.62C287.2,138.84,286.7,138.63,286.11,138.63z"/>
		<path fill="#1A78BD" d="M296.3,136.87c0.48,0,0.92,0.09,1.31,0.27c0.39,0.18,0.73,0.43,1.01,0.75c0.28,0.32,0.5,0.69,0.65,1.11
			c0.15,0.42,0.23,0.88,0.23,1.36v4.08h-1.77v-4.08c0-0.49-0.17-0.9-0.52-1.22c-0.33-0.33-0.74-0.5-1.21-0.5
			c-0.48,0-0.89,0.17-1.22,0.5c-0.33,0.33-0.5,0.74-0.5,1.22v4.08h-1.77v-7.37h1.77v0.56c0.27-0.23,0.57-0.41,0.9-0.55
			C295.51,136.94,295.88,136.87,296.3,136.87z"/>
		<path fill="#1A78BD" d="M307.75,141.64h-3.86c0.1,0.23,0.24,0.43,0.43,0.6c0.21,0.21,0.44,0.36,0.69,0.46
			c0.26,0.1,0.53,0.15,0.81,0.15c0.4,0,0.76-0.09,1.08-0.28l1.84,0.74c-0.35,0.41-0.78,0.74-1.28,0.97
			c-0.5,0.23-1.05,0.35-1.64,0.35c-0.54,0-1.05-0.1-1.52-0.3c-0.47-0.2-0.88-0.48-1.24-0.83c-0.35-0.35-0.63-0.77-0.83-1.24
			c-0.2-0.47-0.3-0.97-0.3-1.5c0-0.54,0.1-1.05,0.3-1.52c0.2-0.47,0.48-0.88,0.83-1.24c0.35-0.35,0.77-0.63,1.24-0.83
			c0.47-0.2,0.98-0.3,1.52-0.3c0.54,0,1.05,0.1,1.52,0.3c0.47,0.2,0.88,0.48,1.24,0.83c0.35,0.35,0.63,0.77,0.83,1.24
			c0.2,0.47,0.3,0.98,0.3,1.52c0,0.31-0.03,0.61-0.1,0.88H307.75z M305.82,138.63c-0.57,0-1.07,0.21-1.5,0.62
			c-0.19,0.19-0.33,0.39-0.43,0.62h3.86c-0.1-0.23-0.24-0.43-0.43-0.62C306.91,138.84,306.41,138.63,305.82,138.63z"/>
		<path fill="#1A78BD" d="M315,137.07c0.35-0.15,0.74-0.22,1.19-0.22v1.77c-0.59,0-1.09,0.21-1.5,0.62
			c-0.41,0.43-0.62,0.93-0.62,1.5v3.7h-1.77v-3.7v-3.69h1.77v0.57C314.34,137.41,314.65,137.22,315,137.07z"/>
		<path fill="#1A78BD" d="M325.87,137.06v7.39h-1.77v-3.69c0-0.59-0.21-1.09-0.62-1.5c-0.41-0.41-0.91-0.62-1.5-0.62
			c-0.29,0-0.56,0.05-0.82,0.16c-0.26,0.11-0.49,0.26-0.69,0.46c-0.41,0.41-0.62,0.91-0.62,1.5c0,0.58,0.21,1.08,0.62,1.49
			c0.2,0.21,0.42,0.36,0.69,0.46c0.26,0.1,0.53,0.15,0.82,0.15c0.3,0,0.56-0.05,0.8-0.15l0.63,1.58c-0.45,0.23-0.98,0.34-1.58,0.34
			c-0.54,0-1.04-0.1-1.5-0.3c-0.46-0.2-0.85-0.48-1.19-0.83c-0.33-0.35-0.59-0.77-0.78-1.24c-0.19-0.47-0.28-0.97-0.28-1.5
			c0-0.54,0.09-1.05,0.28-1.52c0.19-0.47,0.45-0.88,0.78-1.24c0.33-0.35,0.73-0.63,1.19-0.83c0.46-0.2,0.96-0.3,1.5-0.3
			c0.48,0,0.91,0.07,1.28,0.22c0.37,0.15,0.7,0.33,0.99,0.56v-0.59H325.87z"/>
		<path fill="#1A78BD" d="M332.56,144.44h-1.62c-0.33,0-0.65-0.06-0.94-0.19c-0.3-0.13-0.55-0.3-0.77-0.52
			c-0.22-0.22-0.39-0.48-0.52-0.77c-0.13-0.29-0.19-0.61-0.19-0.94v-6.43l1.77-0.44v2.82h1.03l0.44,1.77h-1.47v2.29
			c0,0.19,0.06,0.34,0.19,0.47c0.13,0.13,0.28,0.19,0.46,0.19h1.18L332.56,144.44z"/>
		<path fill="#1A78BD" d="M334.92,134.12h1.77v1.77h-1.77V134.12z M334.92,144.44v-7.37h1.77v7.37H334.92z"/>
		<path fill="#1A78BD" d="M347.84,137.07l-3.42,7.37h-1.95l-3.42-7.37H341l2.45,5.28l2.45-5.28H347.84z"/>
		<path fill="#1A78BD" d="M355.02,141.64h-3.86c0.1,0.23,0.24,0.43,0.43,0.6c0.21,0.21,0.44,0.36,0.69,0.46
			c0.26,0.1,0.53,0.15,0.81,0.15c0.4,0,0.76-0.09,1.08-0.28l1.84,0.74c-0.35,0.41-0.78,0.74-1.28,0.97
			c-0.5,0.23-1.05,0.35-1.64,0.35c-0.54,0-1.05-0.1-1.52-0.3c-0.47-0.2-0.88-0.48-1.24-0.83c-0.35-0.35-0.63-0.77-0.83-1.24
			c-0.2-0.47-0.3-0.97-0.3-1.5c0-0.54,0.1-1.05,0.3-1.52c0.2-0.47,0.48-0.88,0.83-1.24c0.35-0.35,0.77-0.63,1.24-0.83
			c0.47-0.2,0.98-0.3,1.52-0.3c0.54,0,1.05,0.1,1.52,0.3c0.47,0.2,0.89,0.48,1.24,0.83c0.35,0.35,0.63,0.77,0.83,1.24
			c0.2,0.47,0.3,0.98,0.3,1.52c0,0.31-0.03,0.61-0.1,0.88H355.02z M353.09,138.63c-0.57,0-1.07,0.21-1.5,0.62
			c-0.19,0.19-0.33,0.39-0.43,0.62h3.86c-0.1-0.23-0.24-0.43-0.43-0.62C354.18,138.84,353.68,138.63,353.09,138.63z"/>
		<path fill="#1A78BD" d="M259.81,153.99v7.39h-1.77v-3.69c0-0.59-0.21-1.09-0.62-1.5c-0.41-0.41-0.91-0.62-1.5-0.62
			c-0.28,0-0.56,0.05-0.82,0.16c-0.26,0.11-0.49,0.26-0.69,0.46c-0.41,0.41-0.62,0.91-0.62,1.5c0,0.58,0.21,1.08,0.62,1.49
			c0.2,0.21,0.42,0.36,0.69,0.46c0.26,0.1,0.53,0.15,0.82,0.15c0.29,0,0.56-0.05,0.8-0.15l0.63,1.58c-0.45,0.23-0.98,0.34-1.58,0.34
			c-0.54,0-1.04-0.1-1.5-0.3c-0.46-0.2-0.85-0.48-1.19-0.83c-0.33-0.35-0.59-0.77-0.78-1.24c-0.19-0.47-0.28-0.97-0.28-1.5
			c0-0.54,0.09-1.05,0.28-1.52c0.19-0.47,0.45-0.88,0.78-1.24c0.33-0.35,0.73-0.63,1.19-0.83c0.46-0.2,0.96-0.3,1.5-0.3
			c0.48,0,0.91,0.07,1.28,0.22c0.37,0.15,0.7,0.33,0.99,0.56v-0.59H259.81z"/>
		<path fill="#1A78BD" d="M266.32,153.8c0.48,0,0.92,0.09,1.31,0.27c0.39,0.18,0.73,0.43,1.01,0.75c0.28,0.32,0.5,0.69,0.65,1.11
			c0.15,0.42,0.23,0.88,0.23,1.36v4.08h-1.77v-4.08c0-0.49-0.17-0.9-0.52-1.22c-0.33-0.33-0.74-0.5-1.21-0.5
			c-0.48,0-0.89,0.17-1.22,0.5c-0.33,0.33-0.5,0.74-0.5,1.22v4.08h-1.77V154h1.77v0.56c0.27-0.23,0.57-0.41,0.9-0.55
			C265.54,153.87,265.91,153.8,266.32,153.8z"/>
		<path fill="#1A78BD" d="M279.73,151.04v10.34h-1.77v-3.69c0-0.6-0.21-1.1-0.62-1.5c-0.41-0.41-0.91-0.62-1.49-0.62
			c-0.59,0-1.09,0.21-1.5,0.62c-0.41,0.41-0.62,0.91-0.62,1.5c0,0.58,0.21,1.08,0.62,1.49c0.2,0.21,0.42,0.36,0.69,0.46
			c0.26,0.1,0.53,0.15,0.82,0.15c0.28,0,0.55-0.05,0.78-0.15l0.63,1.58c-0.45,0.23-0.97,0.34-1.56,0.34c-0.54,0-1.04-0.1-1.5-0.3
			c-0.46-0.2-0.85-0.48-1.19-0.83c-0.33-0.35-0.59-0.77-0.78-1.24c-0.19-0.47-0.28-0.97-0.28-1.5c0-0.54,0.09-1.05,0.28-1.52
			c0.19-0.47,0.45-0.88,0.78-1.24c0.33-0.35,0.73-0.63,1.19-0.83c0.46-0.2,0.96-0.3,1.5-0.3c0.47,0,0.89,0.07,1.27,0.22
			c0.37,0.15,0.7,0.33,0.99,0.56v-3.54H279.73z"/>
		<path fill="#1A78BD" d="M293.67,160.43c-0.35,0.35-0.77,0.63-1.24,0.83c-0.47,0.2-0.98,0.3-1.52,0.3s-1.05-0.1-1.52-0.3
			c-0.47-0.2-0.88-0.48-1.24-0.83c-0.35-0.35-0.63-0.77-0.83-1.24c-0.2-0.47-0.3-0.97-0.3-1.5c0-0.54,0.1-1.05,0.3-1.52
			c0.2-0.47,0.48-0.88,0.83-1.24c0.35-0.35,0.77-0.63,1.24-0.83c0.47-0.2,0.98-0.3,1.52-0.3s1.05,0.1,1.52,0.3
			c0.47,0.2,0.88,0.48,1.24,0.83l-1.25,1.25c-0.41-0.41-0.91-0.62-1.5-0.62c-0.57,0-1.07,0.21-1.5,0.62
			c-0.41,0.41-0.62,0.91-0.62,1.5c0,0.58,0.21,1.08,0.62,1.49c0.21,0.21,0.44,0.36,0.69,0.46c0.26,0.1,0.53,0.15,0.81,0.15
			c0.6,0,1.1-0.21,1.5-0.62L293.67,160.43z"/>
		<path fill="#1A78BD" d="M299.33,153.8c0.54,0,1.05,0.1,1.52,0.3c0.47,0.2,0.88,0.48,1.24,0.83c0.35,0.35,0.63,0.77,0.83,1.24
			c0.2,0.47,0.3,0.98,0.3,1.52c0,0.53-0.1,1.03-0.3,1.5c-0.2,0.47-0.48,0.88-0.83,1.24c-0.35,0.35-0.77,0.63-1.24,0.83
			c-0.47,0.2-0.98,0.3-1.52,0.3c-0.54,0-1.05-0.1-1.52-0.3c-0.47-0.2-0.88-0.48-1.24-0.83c-0.35-0.35-0.63-0.77-0.83-1.24
			c-0.2-0.47-0.3-0.97-0.3-1.5c0-0.54,0.1-1.05,0.3-1.52c0.2-0.47,0.48-0.88,0.83-1.24c0.35-0.35,0.77-0.63,1.24-0.83
			C298.29,153.9,298.79,153.8,299.33,153.8z M299.33,155.57c-0.59,0-1.09,0.21-1.5,0.62c-0.41,0.41-0.62,0.91-0.62,1.5
			c0,0.58,0.21,1.08,0.62,1.49c0.2,0.21,0.42,0.36,0.69,0.46c0.26,0.1,0.53,0.15,0.82,0.15c0.29,0,0.56-0.05,0.81-0.15
			c0.26-0.1,0.49-0.26,0.69-0.46c0.41-0.41,0.62-0.91,0.62-1.49c0-0.59-0.21-1.09-0.62-1.5C300.4,155.77,299.9,155.57,299.33,155.57
			z"/>
		<path fill="#1A78BD" d="M308.22,156.8c0.12,0.03,0.31,0.1,0.59,0.21c0.27,0.11,0.56,0.26,0.85,0.45c0.29,0.19,0.54,0.43,0.76,0.71
			c0.22,0.28,0.32,0.62,0.32,1.02c0,0.34-0.06,0.66-0.17,0.94c-0.11,0.29-0.28,0.54-0.49,0.75c-0.22,0.22-0.48,0.38-0.8,0.5
			c-0.31,0.12-0.67,0.18-1.06,0.18c-0.6,0-1.16-0.11-1.67-0.32c-0.52-0.22-0.93-0.48-1.25-0.8l1.22-1.22
			c0.26,0.3,0.53,0.5,0.82,0.59c0.29,0.09,0.53,0.13,0.73,0.13c0.3,0,0.53-0.06,0.68-0.18c0.15-0.12,0.22-0.26,0.22-0.43
			c0-0.12-0.05-0.22-0.15-0.31c-0.1-0.09-0.21-0.16-0.35-0.22c-0.13-0.06-0.27-0.11-0.41-0.14c-0.14-0.03-0.25-0.07-0.34-0.1
			c-0.12-0.04-0.32-0.11-0.6-0.21c-0.28-0.1-0.57-0.24-0.86-0.43c-0.29-0.19-0.54-0.42-0.76-0.71c-0.22-0.28-0.32-0.63-0.32-1.03
			c0-0.41,0.07-0.77,0.21-1.07c0.14-0.3,0.33-0.55,0.57-0.74c0.24-0.2,0.51-0.34,0.81-0.43c0.3-0.09,0.62-0.14,0.94-0.14
			c0.5,0,0.93,0.06,1.28,0.18c0.35,0.12,0.64,0.25,0.86,0.38c0.26,0.17,0.47,0.35,0.65,0.56l-1.24,1.24
			c-0.2-0.26-0.41-0.44-0.65-0.56c-0.24-0.12-0.49-0.18-0.75-0.18c-0.21,0-0.41,0.05-0.61,0.15c-0.2,0.1-0.3,0.26-0.3,0.47
			c0,0.12,0.04,0.22,0.13,0.3c0.09,0.08,0.2,0.15,0.32,0.21c0.13,0.05,0.26,0.1,0.41,0.14C307.98,156.74,308.11,156.77,308.22,156.8
			z"/>
		<path fill="#1A78BD" d="M321.23,153.8c0.41,0,0.77,0.08,1.08,0.24c0.31,0.16,0.56,0.37,0.76,0.65c0.2,0.28,0.34,0.59,0.44,0.96
			c0.1,0.36,0.15,0.76,0.15,1.18v4.56h-1.77v-4.56c0-0.34-0.12-0.64-0.37-0.89c-0.24-0.25-0.53-0.37-0.89-0.37
			c-0.35,0-0.65,0.12-0.88,0.37c-0.25,0.25-0.37,0.54-0.37,0.89v4.56h-1.77v-4.56c0-0.34-0.12-0.64-0.37-0.89
			c-0.12-0.13-0.25-0.22-0.41-0.28c-0.15-0.06-0.31-0.09-0.48-0.09c-0.36,0-0.66,0.12-0.9,0.37c-0.25,0.25-0.37,0.54-0.37,0.89v4.56
			h-1.77V154h1.77v0.65c0.28-0.25,0.58-0.45,0.9-0.61c0.31-0.16,0.63-0.24,0.96-0.24c0.44,0,0.81,0.09,1.09,0.27
			c0.28,0.18,0.54,0.42,0.77,0.74c0.27-0.28,0.61-0.52,1.03-0.72C320.26,153.89,320.73,153.8,321.23,153.8z"/>
		<path fill="#1A78BD" d="M331.99,158.57h-3.86c0.1,0.23,0.24,0.43,0.43,0.6c0.21,0.21,0.44,0.36,0.69,0.46
			c0.26,0.1,0.53,0.15,0.81,0.15c0.4,0,0.76-0.09,1.08-0.28l1.84,0.74c-0.35,0.41-0.78,0.74-1.28,0.97
			c-0.5,0.23-1.05,0.35-1.64,0.35c-0.54,0-1.05-0.1-1.52-0.3c-0.47-0.2-0.88-0.48-1.24-0.83c-0.35-0.35-0.63-0.77-0.83-1.24
			c-0.2-0.47-0.3-0.97-0.3-1.5c0-0.54,0.1-1.05,0.3-1.52c0.2-0.47,0.48-0.88,0.83-1.24c0.35-0.35,0.77-0.63,1.24-0.83
			c0.47-0.2,0.98-0.3,1.52-0.3c0.54,0,1.05,0.1,1.52,0.3c0.47,0.2,0.89,0.48,1.24,0.83c0.35,0.35,0.63,0.77,0.83,1.24
			c0.2,0.47,0.3,0.98,0.3,1.52c0,0.31-0.03,0.61-0.1,0.88H331.99z M330.06,155.57c-0.57,0-1.07,0.21-1.5,0.62
			c-0.19,0.19-0.33,0.39-0.43,0.62h3.86c-0.1-0.23-0.24-0.43-0.43-0.62C331.15,155.77,330.65,155.57,330.06,155.57z"/>
		<path fill="#1A78BD" d="M340.42,161.37h-1.62c-0.33,0-0.65-0.06-0.94-0.19c-0.29-0.13-0.55-0.3-0.77-0.52
			c-0.22-0.22-0.39-0.48-0.52-0.77c-0.13-0.3-0.19-0.61-0.19-0.94v-6.43l1.77-0.44v2.82h1.03l0.44,1.77h-1.47v2.29
			c0,0.19,0.06,0.34,0.19,0.47c0.13,0.13,0.28,0.19,0.46,0.19h1.18L340.42,161.37z"/>
		<path fill="#1A78BD" d="M342.78,151.05h1.77v1.77h-1.77V151.05z M342.78,161.37V154h1.77v7.37H342.78z"/>
		<path fill="#1A78BD" d="M353.78,160.43c-0.35,0.35-0.77,0.63-1.24,0.83c-0.47,0.2-0.98,0.3-1.52,0.3c-0.54,0-1.05-0.1-1.52-0.3
			c-0.47-0.2-0.88-0.48-1.24-0.83c-0.35-0.35-0.63-0.77-0.83-1.24c-0.2-0.47-0.3-0.97-0.3-1.5c0-0.54,0.1-1.05,0.3-1.52
			c0.2-0.47,0.48-0.88,0.83-1.24c0.35-0.35,0.77-0.63,1.24-0.83c0.47-0.2,0.98-0.3,1.52-0.3c0.54,0,1.05,0.1,1.52,0.3
			c0.47,0.2,0.89,0.48,1.24,0.83l-1.25,1.25c-0.41-0.41-0.91-0.62-1.5-0.62c-0.57,0-1.07,0.21-1.5,0.62
			c-0.41,0.41-0.62,0.91-0.62,1.5c0,0.58,0.21,1.08,0.62,1.49c0.21,0.21,0.44,0.36,0.69,0.46c0.26,0.1,0.53,0.15,0.81,0.15
			c0.6,0,1.1-0.21,1.5-0.62L353.78,160.43z"/>
		<path fill="#1A78BD" d="M254.95,170.93c0.35-0.15,0.74-0.22,1.19-0.22v1.77c-0.59,0-1.09,0.21-1.5,0.62
			c-0.41,0.43-0.62,0.93-0.62,1.5v3.7h-1.77v-3.7v-3.69h1.77v0.57C254.29,171.27,254.6,171.08,254.95,170.93z"/>
		<path fill="#1A78BD" d="M265.82,170.92v7.39h-1.77v-3.69c0-0.59-0.21-1.09-0.62-1.5c-0.41-0.41-0.91-0.62-1.5-0.62
			c-0.28,0-0.56,0.05-0.82,0.16c-0.26,0.11-0.49,0.26-0.69,0.46c-0.41,0.41-0.62,0.91-0.62,1.5c0,0.58,0.21,1.08,0.62,1.49
			c0.2,0.21,0.42,0.36,0.69,0.46c0.26,0.1,0.53,0.15,0.82,0.15c0.3,0,0.56-0.05,0.8-0.15l0.63,1.58c-0.45,0.23-0.98,0.34-1.58,0.34
			c-0.54,0-1.04-0.1-1.5-0.3c-0.46-0.2-0.85-0.48-1.19-0.83c-0.33-0.35-0.6-0.77-0.78-1.24c-0.19-0.47-0.28-0.97-0.28-1.5
			c0-0.54,0.09-1.05,0.28-1.52c0.19-0.47,0.45-0.89,0.78-1.24c0.33-0.35,0.73-0.63,1.19-0.83c0.46-0.2,0.96-0.3,1.5-0.3
			c0.48,0,0.91,0.07,1.28,0.22c0.37,0.15,0.7,0.33,0.99,0.56v-0.59H265.82z"/>
		<path fill="#1A78BD" d="M276.17,167.97v10.33h-1.77v-3.69c0-0.6-0.21-1.1-0.62-1.5c-0.41-0.41-0.91-0.62-1.49-0.62
			c-0.59,0-1.09,0.21-1.5,0.62c-0.41,0.41-0.62,0.91-0.62,1.5c0,0.58,0.21,1.08,0.62,1.49c0.2,0.21,0.42,0.36,0.69,0.46
			c0.26,0.1,0.53,0.15,0.82,0.15c0.29,0,0.55-0.05,0.78-0.15l0.63,1.58c-0.45,0.23-0.97,0.34-1.56,0.34c-0.54,0-1.04-0.1-1.5-0.3
			c-0.46-0.2-0.85-0.48-1.19-0.83c-0.33-0.35-0.59-0.77-0.78-1.24c-0.19-0.47-0.28-0.97-0.28-1.5c0-0.54,0.09-1.05,0.28-1.52
			c0.19-0.47,0.45-0.89,0.78-1.24c0.33-0.35,0.73-0.63,1.19-0.83c0.46-0.2,0.96-0.3,1.5-0.3c0.47,0,0.89,0.07,1.27,0.22
			c0.37,0.15,0.7,0.33,0.99,0.56v-3.54H276.17z"/>
		<path fill="#1A78BD" d="M278.97,167.99h1.77v1.77h-1.77V167.99z M278.97,178.31v-7.37h1.77v7.37H278.97z"/>
		<path fill="#1A78BD" d="M287.22,170.73c0.54,0,1.05,0.1,1.52,0.3c0.47,0.2,0.89,0.48,1.24,0.83c0.35,0.35,0.63,0.77,0.83,1.24
			c0.2,0.47,0.3,0.98,0.3,1.52c0,0.53-0.1,1.03-0.3,1.5c-0.2,0.47-0.48,0.88-0.83,1.24c-0.35,0.35-0.77,0.63-1.24,0.83
			c-0.47,0.2-0.98,0.3-1.52,0.3c-0.54,0-1.05-0.1-1.52-0.3c-0.47-0.2-0.88-0.48-1.24-0.83c-0.35-0.35-0.63-0.77-0.83-1.24
			c-0.2-0.47-0.3-0.97-0.3-1.5c0-0.54,0.1-1.05,0.3-1.52c0.2-0.47,0.48-0.89,0.83-1.24c0.35-0.35,0.77-0.63,1.24-0.83
			C286.17,170.83,286.67,170.73,287.22,170.73z M287.22,172.5c-0.59,0-1.09,0.21-1.5,0.62c-0.41,0.41-0.62,0.91-0.62,1.5
			c0,0.58,0.21,1.08,0.62,1.49c0.2,0.21,0.42,0.36,0.69,0.46c0.26,0.1,0.53,0.15,0.82,0.15c0.28,0,0.56-0.05,0.81-0.15
			c0.26-0.1,0.49-0.26,0.69-0.46c0.41-0.41,0.62-0.91,0.62-1.49c0-0.59-0.21-1.09-0.62-1.5C288.29,172.7,287.79,172.5,287.22,172.5z
			"/>
		<path fill="#1A78BD" d="M293.69,178.31v-10.32h1.77v10.32H293.69z"/>
		<path fill="#1A78BD" d="M301.93,170.73c0.54,0,1.05,0.1,1.52,0.3c0.47,0.2,0.88,0.48,1.24,0.83c0.35,0.35,0.63,0.77,0.83,1.24
			c0.2,0.47,0.3,0.98,0.3,1.52c0,0.53-0.1,1.03-0.3,1.5c-0.2,0.47-0.48,0.88-0.83,1.24c-0.35,0.35-0.77,0.63-1.24,0.83
			c-0.47,0.2-0.98,0.3-1.52,0.3c-0.54,0-1.05-0.1-1.52-0.3c-0.47-0.2-0.88-0.48-1.24-0.83c-0.35-0.35-0.63-0.77-0.83-1.24
			c-0.2-0.47-0.3-0.97-0.3-1.5c0-0.54,0.1-1.05,0.3-1.52c0.2-0.47,0.48-0.89,0.83-1.24c0.35-0.35,0.77-0.63,1.24-0.83
			C300.88,170.83,301.39,170.73,301.93,170.73z M301.93,172.5c-0.59,0-1.09,0.21-1.5,0.62c-0.41,0.41-0.62,0.91-0.62,1.5
			c0,0.58,0.21,1.08,0.62,1.49c0.2,0.21,0.42,0.36,0.69,0.46c0.26,0.1,0.53,0.15,0.82,0.15c0.28,0,0.56-0.05,0.81-0.15
			c0.26-0.1,0.49-0.26,0.69-0.46c0.41-0.41,0.62-0.91,0.62-1.49c0-0.59-0.21-1.09-0.62-1.5C303,172.7,302.5,172.5,301.93,172.5z"/>
		<path fill="#1A78BD" d="M315.96,177.57c0,0.53-0.1,1.03-0.3,1.5c-0.2,0.47-0.48,0.88-0.83,1.24c-0.35,0.35-0.77,0.63-1.24,0.84
			c-0.47,0.21-0.98,0.31-1.52,0.31c-0.44,0-0.86-0.07-1.25-0.21c-0.39-0.14-0.76-0.33-1.09-0.59l1.28-1.27
			c0.31,0.2,0.67,0.29,1.06,0.29c0.6,0,1.1-0.21,1.5-0.63c0.41-0.41,0.62-0.91,0.62-1.49v-2.96c0-0.57-0.21-1.07-0.62-1.5
			c-0.41-0.41-0.91-0.62-1.5-0.62c-0.57,0-1.07,0.21-1.5,0.62c-0.41,0.43-0.62,0.93-0.62,1.5c0,0.59,0.21,1.09,0.62,1.5
			c0.43,0.41,0.93,0.62,1.5,0.62c0.3,0,0.56-0.05,0.8-0.15l0.66,1.65c-0.44,0.18-0.92,0.27-1.43,0.27h-0.03
			c-0.53,0-1.03-0.1-1.5-0.3c-0.47-0.2-0.88-0.48-1.24-0.83c-0.35-0.35-0.63-0.77-0.84-1.24c-0.21-0.47-0.31-0.98-0.31-1.52
			c0-0.54,0.09-1.05,0.27-1.52c0.18-0.47,0.42-0.89,0.74-1.24c0.32-0.35,0.7-0.63,1.15-0.83c0.45-0.2,0.94-0.3,1.47-0.3
			c0.51,0,0.96,0.08,1.36,0.23c0.39,0.15,0.74,0.34,1.03,0.57v-0.57h1.77V177.57z"/>
		<path fill="#1A78BD" d="M326.96,170.93l-3.42,7.37l-0.46,1c-0.27,0.6-0.69,1.08-1.24,1.43c-0.55,0.35-1.16,0.53-1.83,0.53h-0.78
			l0.44-1.77h0.43c0.29,0,0.55-0.08,0.8-0.24c0.25-0.16,0.43-0.37,0.55-0.63l0.15-0.32l-3.42-7.37h1.95l2.45,5.28l2.45-5.28H326.96z
			"/>
	</g>
	<g>
		<path fill-rule="evenodd" clip-rule="evenodd" fill="#1A78BD" d="M255.98,11.76l-12.78,31.86c-1.46,4.2,1.42,5.68,0.98,8.55
			c-0.27,1.81-2.2,4.44-3.61,7.37c-0.52,1.07-1.68,4.18-1.85,4.7c-1.47,4.55-0.61,13.01-0.49,18.52
			c0.22,9.81-11.54,19.59-11.93,29.66l-2.01,52.31c-3.22-23.72-5.84-48.44-9.93-71.94c-1.04-5.98-1.71-11.08,1.99-17.07
			c3.59-5.82,8.2-7.43,9.85-12.59c1.6-4.98-0.2-10.3-3.82-14.31c-9.93-11.04-25.23-25.86-35.67-36.78
			c7.3,4.31,25.94,22.03,37.84,28.67c7.57,4.22,9.62,3.15,14.59-3.31C245.34,29.33,253.56,15.44,255.98,11.76L255.98,11.76z
			 M225.99,26.61c-2.64,1.16-3.33,5.26-1.54,9.16c1.79,3.9,5.39,6.12,8.03,4.96c2.64-1.16,3.33-5.26,1.54-9.16
			C232.22,27.67,228.63,25.45,225.99,26.61L225.99,26.61L225.99,26.61z"/>
		<g>
			<g>
				<path fill="#2B388F" d="M242.9,57.39c0.86,0.18,7.31,1.39,9.74,2.14c-1.11,4.29,4.17,6.43,9.04,7.44
					c6.84,1.43,8.91-4.25,2.89-10.42c-4.17-4.28-18.79-7.02-19.8-7.2l-1.17-0.24c0,0,0.09,0.21,0.18,0.45
					c0.13,0.34,0.32,0.85,0.4,1.42c0.08,0.52,0.07,1.1-0.1,1.65c-0.12,0.41-0.31,0.92-0.57,1.43c-0.22,0.43-0.45,0.9-0.68,1.31
					c-0.57,1-1.02,1.83-1.02,1.83L242.9,57.39z M259,60.07c-0.84-0.22-1.34-1.07-1.12-1.9c0.22-0.84,1.07-1.34,1.91-1.12
					c0.84,0.22,1.34,1.07,1.12,1.91C260.69,59.79,259.84,60.29,259,60.07z M216.05,103.07l-1.43,0.77
					c-1.82,0.92-3.38,1.87-4.47,2.83c-9.13,7.97-1.82,17.75,5.7,22.78c13.16,8.79,16.08,13.82,11.74,17.81
					c-1.18,0.98-2.71,2.1-2.71,2.1s-0.15,4.06-0.2,5.19c0.9-0.45,2.84-1.66,2.9-1.68c6.2-3.68,15.37-11.98-6.71-26.62
					c-8.95-5.93-9.69-10.83-6.78-14.19c0.36-0.41,2.34-1.86,2.97-2.28l-0.2-1.33l-0.37-2.48L216.05,103.07z M217.28,165.37
					c0.3-3.54,1.66-5.96,3.44-7.79c0.5-0.55,1.83-1.53,2.36-1.95c-0.19-1.49-0.58-4.48-0.61-4.69c-0.33,0.22-1.39,1.02-1.78,1.31
					c-3.63,3.01-6.51,6.65-6.8,10.88c-0.72,10.82,8.27,16.86,15.26,19.11C220.51,177.33,216.74,171.79,217.28,165.37z M223.33,49.97
					c-0.49,0.13-1.98,0.52-2.42,0.61c-11.74,2.78-30.95,13.98-13.88,22.79c3.34,1.72,9.17,3.4,19.87,4.59
					c12.9,1.44,19.09,9.27,10.67,16.05c-0.64,0.52-3.09,1.71-4.19,2c0,0-0.53,0.9-1.14,1.93c-0.61,1.02-1.28,2.13-1.6,2.67
					c-0.23,0.39-0.9,1.61-1.47,2.68c-0.57,1.09-0.98,2-0.98,2c0.09-0.03,2.3-0.98,2.39-1.01c4.15-1.48,8.29-3.1,11.51-5.28
					c11.65-7.87,9.28-23.31-8.6-26.93c-10.38-2.11-16.6-2.57-20.46-4.31c-5.49-2.46-0.52-6.33,7.83-8.59
					c1.12-0.32,4.04-0.94,5.82-1.28c0,0-0.1-1.05-0.49-2.39c-0.17-0.6-0.41-1.25-0.7-1.89c-0.48-1.07-0.99-1.92-1.39-2.53
					C223.65,50.35,223.33,49.97,223.33,49.97z"/>
			</g>
		</g>
	</g>
</g>
<g>
</g>
<g>
</g>
<g>
</g>
<g>
</g>
<g>
</g>
<g>
</g>
<g>
</g>
<g>
</g>
<g>
</g>
<g>
</g>
<g>
</g>
<g>
</g>
<g>
</g>
<g>
</g>
<g>
</g>
</svg>
