<?xml version="1.0" encoding="utf-8"?>
<!-- Generator: Adobe Illustrator 23.0.0, SVG Export Plug-In . SVG Version: 6.00 Build 0)  -->
<svg version="1.1" id="Capa_1" xmlns="http://www.w3.org/2000/svg" xmlns:xlink="http://www.w3.org/1999/xlink" x="0px" y="0px"
	 viewBox="0 0 1399 578" style="enable-background:new 0 0 1399 578;" xml:space="preserve">
<style type="text/css">
	.st0{opacity:0.07;}
	.st1{opacity:0.2;}
	.st2{fill:#2B388F;}
	.st3{fill:#1A78BD;}
	.st4{fill-rule:evenodd;clip-rule:evenodd;fill:#1A78BD;}
</style>
<rect y="-6.39" class="st0" width="1405" height="591"/>
<g>
	<g class="st1">
		<g>
			<path class="st2" d="M524.54,268.32l-0.04-27.56h9.84c1.61,0,3.1,0.35,4.47,1.06c1.37,0.71,2.46,1.65,3.26,2.84
				c0.81,1.19,1.21,2.49,1.21,3.9c0,1.39-0.4,2.68-1.21,3.88c-0.81,1.2-1.89,2.16-3.26,2.86c-1.37,0.71-2.86,1.06-4.47,1.06h-7.89
				v11.96H524.54z M526.45,254.37h7.89c1.27,0,2.44-0.26,3.52-0.78c1.07-0.52,1.93-1.23,2.57-2.12c0.64-0.89,0.95-1.86,0.95-2.9
				c0-1.07-0.32-2.06-0.95-2.95c-0.64-0.89-1.49-1.6-2.57-2.12c-1.07-0.52-2.25-0.78-3.52-0.78h-7.93L526.45,254.37z"/>
			<path class="st2" d="M562.62,268.32l-11.45-13.91h3.39c2.09,0,3.79-0.27,5.09-0.81c0.96-0.45,1.79-1.14,2.5-2.06
				c0.71-0.92,1.06-1.93,1.06-3.03c0-0.99-0.3-1.93-0.89-2.82c-0.59-0.89-1.44-1.62-2.54-2.18c-1.1-0.56-2.37-0.85-3.82-0.85h-7.72
				v25.65h-1.91v-27.56h9.63c1.3,0,2.52,0.21,3.65,0.61c1.13,0.41,2.12,1,2.97,1.76c0.82,0.74,1.45,1.57,1.89,2.5
				c0.44,0.93,0.66,1.89,0.66,2.88c0,1.56-0.47,2.95-1.4,4.18c-0.93,1.23-2.03,2.11-3.31,2.65c-0.88,0.4-1.73,0.64-2.57,0.74
				c-0.83,0.1-1.72,0.15-2.65,0.15l9.96,12.08H562.62z"/>
			<path class="st2" d="M569.15,268.32v-27.56H587v1.95h-15.94v10.86h12.42v1.95h-12.42v10.81H587v1.99H569.15z"/>
			<path class="st2" d="M603.07,268.62c-2.52,0-4.85-0.64-7-1.91c-2.15-1.27-3.84-2.99-5.09-5.15c-1.24-2.16-1.87-4.52-1.87-7.06
				c0-2.54,0.62-4.89,1.87-7.04c1.24-2.15,2.94-3.86,5.09-5.13c2.15-1.27,4.48-1.91,7-1.91c1.95,0,3.82,0.4,5.62,1.21
				c1.79,0.81,3.37,1.94,4.73,3.41l-1.48,1.31c-1.13-1.27-2.47-2.26-4.01-2.97c-1.54-0.71-3.16-1.06-4.85-1.06
				c-2.18,0-4.18,0.54-6.02,1.63c-1.84,1.09-3.3,2.57-4.39,4.43c-1.09,1.87-1.63,3.9-1.63,6.11s0.54,4.24,1.63,6.11
				c1.09,1.87,2.55,3.34,4.39,4.43c1.84,1.09,3.84,1.63,6.02,1.63c1.81,0,3.53-0.4,5.15-1.19c1.62-0.79,3.02-1.89,4.18-3.31
				l1.53,1.19c-1.33,1.67-2.94,2.96-4.83,3.88C607.2,268.16,605.19,268.62,603.07,268.62z"/>
			<path class="st2" d="M617.23,268.32v-27.56h1.91v27.56H617.23z"/>
			<path class="st2" d="M641.89,257.66c0.72,1.06,1.08,2.2,1.08,3.41c0,1.05-0.25,2.04-0.76,2.99c-0.51,0.95-1.24,1.77-2.21,2.48
				c-1.98,1.41-4.28,2.12-6.91,2.12c-1.3,0-2.54-0.18-3.73-0.55c-1.19-0.37-2.25-0.89-3.18-1.57c-1.61-1.19-2.59-2.64-2.93-4.37
				l1.82-1.02c0.09,1.55,0.85,2.83,2.29,3.82c0.73,0.57,1.6,1,2.59,1.29c0.99,0.3,2.04,0.45,3.14,0.45c2.26,0,4.17-0.58,5.72-1.74
				c1.5-1.1,2.25-2.4,2.25-3.9c0-0.88-0.28-1.7-0.83-2.46c-0.55-0.76-1.32-1.41-2.31-1.95c-0.93-0.48-2.6-0.86-5-1.14
				c-0.2-0.03-0.91-0.14-2.14-0.34c-1.23-0.2-2.28-0.51-3.16-0.93c-1.39-0.68-2.47-1.58-3.27-2.69c-0.79-1.12-1.19-2.33-1.19-3.63
				c0-1.05,0.26-2.03,0.78-2.95c0.52-0.92,1.26-1.73,2.23-2.44c0.93-0.68,1.99-1.2,3.18-1.57c1.19-0.37,2.43-0.55,3.73-0.55
				c2.63,0,4.93,0.71,6.91,2.12c1.64,1.24,2.6,2.69,2.88,4.32l-1.82,1.02c-0.03-0.71-0.23-1.38-0.61-2.04
				c-0.38-0.65-0.93-1.24-1.63-1.78c-0.76-0.56-1.64-1-2.63-1.29c-0.99-0.3-2.02-0.44-3.1-0.44c-1.07,0-2.11,0.15-3.12,0.44
				c-1,0.3-1.87,0.73-2.61,1.29c-0.74,0.54-1.3,1.14-1.7,1.8c-0.4,0.66-0.59,1.35-0.59,2.06c0,0.88,0.32,1.75,0.98,2.61
				c0.65,0.86,1.46,1.53,2.42,2.01c0.59,0.28,1.25,0.49,1.97,0.61c0.72,0.13,1.65,0.26,2.78,0.4c0.2,0.03,0.69,0.1,1.48,0.21
				c0.79,0.11,1.55,0.27,2.29,0.47c0.73,0.2,1.36,0.44,1.87,0.72C640.16,255.7,641.17,256.6,641.89,257.66z"/>
			<path class="st2" d="M647.25,268.32v-27.56h1.91v27.56H647.25z"/>
			<path class="st2" d="M666.63,268.62c-2.52,0-4.85-0.63-7-1.89c-2.15-1.26-3.84-2.97-5.09-5.13c-1.24-2.16-1.87-4.52-1.87-7.06
				c0-2.54,0.62-4.9,1.87-7.06c1.24-2.16,2.94-3.87,5.09-5.13c2.15-1.26,4.48-1.89,7-1.89c2.52,0,4.85,0.63,7,1.89
				c2.15,1.26,3.84,2.97,5.09,5.13c1.24,2.16,1.87,4.52,1.87,7.06c0,2.54-0.62,4.9-1.87,7.06c-1.24,2.16-2.94,3.87-5.09,5.13
				C671.48,267.99,669.15,268.62,666.63,268.62z M666.63,242.42c-2.18,0-4.18,0.54-6.02,1.63c-1.84,1.09-3.3,2.56-4.39,4.41
				c-1.09,1.85-1.63,3.88-1.63,6.08s0.54,4.23,1.63,6.08c1.09,1.85,2.55,3.32,4.39,4.41c1.84,1.09,3.84,1.63,6.02,1.63
				c2.18,0,4.18-0.54,6.02-1.63c1.84-1.09,3.29-2.56,4.37-4.41c1.07-1.85,1.61-3.88,1.61-6.08s-0.54-4.23-1.61-6.08
				c-1.07-1.85-2.53-3.32-4.37-4.41C670.82,242.96,668.81,242.42,666.63,242.42z"/>
			<path class="st2" d="M685.29,245.94v22.39h-1.91v-27.9l19.08,22.81v-22.47h1.91v28.03L685.29,245.94z"/>
			<path class="st2" d="M586.83,292.31h-16.28v12.81h-1.95v-14.76v-12.81h1.95v12.81h16.28v-12.81h1.91v13.74v13.82h-1.91V292.31z"
				/>
			<path class="st2" d="M593.53,305.11v-27.56h17.85v1.95h-15.94v10.86h12.42v1.95h-12.42v10.81h15.94v1.99H593.53z"/>
			<path class="st2" d="M619.31,298.12l-3.27,7h-2.12l12.98-27.9l12.25,27.9h-2.08l-3.1-7H619.31z M626.82,281.92l-6.62,14.29h12.93
				L626.82,281.92z"/>
			<path class="st2" d="M641.74,305.11v-27.56h1.91v25.65h15.48v1.91H641.74z"/>
			<path class="st2" d="M681.39,277.55v1.95h-10.9v25.61h-1.95V279.5H657.6v-1.95H681.39z"/>
			<path class="st2" d="M702.42,292.31h-16.28v12.81h-1.95v-14.76v-12.81h1.95v12.81h16.28v-12.81h1.91v13.74v13.82h-1.91V292.31z"
				/>
			<path class="st2" d="M578.69,342.2c-2.52,0-4.85-0.64-7-1.91c-2.15-1.27-3.84-2.99-5.09-5.15c-1.24-2.16-1.87-4.52-1.87-7.06
				c0-2.54,0.62-4.89,1.87-7.04c1.24-2.15,2.94-3.86,5.09-5.13c2.15-1.27,4.48-1.91,7-1.91c1.95,0,3.82,0.4,5.62,1.21
				c1.8,0.81,3.37,1.94,4.73,3.41l-1.48,1.31c-1.13-1.27-2.47-2.26-4.01-2.97c-1.54-0.71-3.16-1.06-4.85-1.06
				c-2.18,0-4.18,0.54-6.02,1.63c-1.84,1.09-3.3,2.57-4.39,4.43c-1.09,1.87-1.63,3.9-1.63,6.11c0,2.21,0.54,4.24,1.63,6.11
				c1.09,1.87,2.55,3.34,4.39,4.43c1.84,1.09,3.84,1.63,6.02,1.63c1.81,0,3.53-0.4,5.15-1.19c1.63-0.79,3.02-1.89,4.18-3.31
				l1.53,1.19c-1.33,1.67-2.94,2.96-4.83,3.88C582.82,341.74,580.81,342.2,578.69,342.2z"/>
			<path class="st2" d="M592.34,341.9v-27.56h17.85v1.95h-15.94v10.86h12.42v1.95h-12.42v10.81h15.94v1.99H592.34z"/>
			<path class="st2" d="M616,319.51v22.39h-1.91V314l19.08,22.81v-22.47h1.91v28.03L616,319.51z"/>
			<path class="st2" d="M661.42,314.34v1.95h-10.9v25.61h-1.95v-25.61h-10.94v-1.95H661.42z"/>
			<path class="st2" d="M664.17,341.9v-27.56h17.85v1.95h-15.94v10.86h12.42v1.95h-12.42v10.81h15.94v1.99H664.17z"/>
			<path class="st2" d="M702.17,341.9l-11.45-13.91h3.39c2.09,0,3.79-0.27,5.09-0.81c0.96-0.45,1.8-1.14,2.5-2.06
				c0.71-0.92,1.06-1.93,1.06-3.03c0-0.99-0.3-1.93-0.89-2.82c-0.59-0.89-1.44-1.62-2.54-2.18c-1.1-0.57-2.37-0.85-3.82-0.85h-7.72
				v25.65h-1.91v-27.56h9.63c1.3,0,2.52,0.21,3.65,0.62c1.13,0.41,2.12,1,2.97,1.76c0.82,0.74,1.45,1.57,1.89,2.5
				c0.44,0.93,0.66,1.89,0.66,2.88c0,1.56-0.47,2.95-1.4,4.18c-0.93,1.23-2.04,2.11-3.31,2.65c-0.88,0.4-1.73,0.64-2.57,0.74
				c-0.83,0.1-1.72,0.15-2.65,0.15l9.96,12.08H702.17z"/>
		</g>
		<g>
			<path class="st3" d="M776.76,302.77c0,0.38-0.05,0.73-0.16,1.08c-0.1,0.34-0.25,0.65-0.43,0.94s-0.41,0.55-0.67,0.78
				c-0.26,0.23-0.55,0.42-0.87,0.57l2.12,3.29h-2.12l-1.88-2.92h-1.22l0.73-1.78h0.77c0.53,0,0.99-0.19,1.38-0.58
				c0.18-0.19,0.32-0.4,0.41-0.64c0.1-0.24,0.15-0.48,0.15-0.74c0-0.26-0.05-0.5-0.15-0.74c-0.1-0.24-0.24-0.45-0.41-0.62
				c-0.39-0.39-0.85-0.58-1.38-0.58h-2.11v0.98v2.92v1.78v2.92h-1.78v-2.92v-4.7v-2.76h3.89c0.51,0,1,0.1,1.45,0.3
				c0.45,0.2,0.84,0.46,1.18,0.8c0.34,0.34,0.6,0.73,0.8,1.18C776.66,301.77,776.76,302.25,776.76,302.77z"/>
			<path class="st3" d="M784.68,306.61h-3.89c0.1,0.23,0.24,0.43,0.43,0.61c0.21,0.21,0.44,0.36,0.7,0.47
				c0.26,0.1,0.53,0.16,0.82,0.16c0.41,0,0.77-0.09,1.08-0.28l1.85,0.74c-0.36,0.42-0.79,0.74-1.29,0.97
				c-0.5,0.23-1.05,0.35-1.65,0.35c-0.54,0-1.05-0.1-1.53-0.3c-0.47-0.2-0.89-0.48-1.25-0.84c-0.36-0.36-0.64-0.77-0.84-1.25
				c-0.2-0.47-0.3-0.98-0.3-1.51c0-0.54,0.1-1.05,0.3-1.53c0.2-0.47,0.48-0.89,0.84-1.25c0.36-0.36,0.77-0.63,1.25-0.84
				c0.47-0.2,0.98-0.3,1.53-0.3c0.54,0,1.05,0.1,1.53,0.3c0.47,0.2,0.89,0.48,1.25,0.84c0.36,0.36,0.64,0.77,0.84,1.25
				c0.2,0.47,0.3,0.98,0.3,1.53c0,0.32-0.04,0.61-0.1,0.89H784.68z M782.74,303.58c-0.57,0-1.08,0.21-1.51,0.62
				c-0.19,0.19-0.33,0.4-0.43,0.62h3.89c-0.1-0.23-0.24-0.43-0.43-0.62C783.83,303.79,783.33,303.58,782.74,303.58z"/>
			<path class="st3" d="M796.85,308.68c0,0.53-0.1,1.04-0.3,1.51c-0.2,0.47-0.48,0.89-0.84,1.25c-0.36,0.36-0.77,0.64-1.25,0.84
				c-0.47,0.21-0.98,0.31-1.53,0.31c-0.44,0-0.87-0.07-1.26-0.21c-0.4-0.14-0.76-0.34-1.1-0.59l1.29-1.27
				c0.32,0.2,0.67,0.3,1.07,0.3c0.6,0,1.11-0.21,1.51-0.64c0.41-0.41,0.62-0.91,0.62-1.5v-2.98c0-0.57-0.21-1.08-0.62-1.51
				c-0.42-0.41-0.92-0.62-1.51-0.62c-0.57,0-1.08,0.21-1.51,0.62c-0.42,0.43-0.62,0.94-0.62,1.51c0,0.59,0.21,1.1,0.62,1.51
				c0.44,0.41,0.94,0.62,1.51,0.62c0.3,0,0.56-0.05,0.8-0.15l0.67,1.66c-0.44,0.18-0.92,0.27-1.44,0.27h-0.03
				c-0.53,0-1.04-0.1-1.51-0.3c-0.47-0.2-0.89-0.48-1.25-0.84c-0.36-0.36-0.64-0.77-0.84-1.25c-0.21-0.47-0.31-0.98-0.31-1.53
				c0-0.54,0.09-1.05,0.27-1.53c0.18-0.47,0.43-0.89,0.75-1.25c0.32-0.36,0.71-0.64,1.16-0.84c0.45-0.2,0.94-0.3,1.48-0.3
				c0.51,0,0.97,0.08,1.36,0.23c0.4,0.15,0.74,0.34,1.04,0.57v-0.58h1.78V308.68z"/>
			<path class="st3" d="M805.16,306.61h-3.89c0.1,0.23,0.24,0.43,0.43,0.61c0.21,0.21,0.44,0.36,0.7,0.47
				c0.26,0.1,0.53,0.16,0.82,0.16c0.41,0,0.77-0.09,1.08-0.28l1.85,0.74c-0.36,0.42-0.79,0.74-1.29,0.97
				c-0.5,0.23-1.05,0.35-1.65,0.35c-0.54,0-1.05-0.1-1.53-0.3c-0.47-0.2-0.89-0.48-1.25-0.84c-0.36-0.36-0.64-0.77-0.84-1.25
				c-0.2-0.47-0.3-0.98-0.3-1.51c0-0.54,0.1-1.05,0.3-1.53c0.2-0.47,0.48-0.89,0.84-1.25c0.36-0.36,0.77-0.63,1.25-0.84
				c0.47-0.2,0.98-0.3,1.53-0.3c0.54,0,1.05,0.1,1.53,0.3c0.47,0.2,0.89,0.48,1.25,0.84c0.36,0.36,0.63,0.77,0.84,1.25
				c0.2,0.47,0.3,0.98,0.3,1.53c0,0.32-0.04,0.61-0.1,0.89H805.16z M803.22,303.58c-0.57,0-1.08,0.21-1.51,0.62
				c-0.19,0.19-0.33,0.4-0.43,0.62h3.89c-0.1-0.23-0.24-0.43-0.43-0.62C804.31,303.79,803.81,303.58,803.22,303.58z"/>
			<path class="st3" d="M813.46,301.8c0.48,0,0.92,0.09,1.32,0.27c0.4,0.18,0.73,0.43,1.02,0.76c0.28,0.32,0.5,0.69,0.65,1.12
				c0.15,0.43,0.23,0.88,0.23,1.36v4.11h-1.78v-4.11c0-0.49-0.17-0.9-0.52-1.23c-0.34-0.34-0.74-0.5-1.22-0.5
				c-0.48,0-0.9,0.17-1.23,0.5c-0.34,0.34-0.5,0.75-0.5,1.23v4.11h-1.78v-7.41h1.78v0.56c0.27-0.23,0.57-0.41,0.9-0.56
				C812.67,301.88,813.05,301.8,813.46,301.8z"/>
			<path class="st3" d="M824.99,306.61h-3.89c0.1,0.23,0.24,0.43,0.43,0.61c0.21,0.21,0.44,0.36,0.7,0.47
				c0.26,0.1,0.53,0.16,0.82,0.16c0.41,0,0.77-0.09,1.08-0.28l1.85,0.74c-0.36,0.42-0.79,0.74-1.29,0.97
				c-0.5,0.23-1.05,0.35-1.65,0.35c-0.54,0-1.05-0.1-1.53-0.3c-0.47-0.2-0.89-0.48-1.25-0.84c-0.36-0.36-0.64-0.77-0.84-1.25
				c-0.2-0.47-0.3-0.98-0.3-1.51c0-0.54,0.1-1.05,0.3-1.53c0.2-0.47,0.48-0.89,0.84-1.25c0.36-0.36,0.77-0.63,1.25-0.84
				c0.47-0.2,0.98-0.3,1.53-0.3s1.05,0.1,1.53,0.3c0.47,0.2,0.89,0.48,1.25,0.84c0.36,0.36,0.63,0.77,0.84,1.25
				c0.2,0.47,0.3,0.98,0.3,1.53c0,0.32-0.03,0.61-0.1,0.89H824.99z M823.04,303.58c-0.57,0-1.08,0.21-1.51,0.62
				c-0.19,0.19-0.33,0.4-0.43,0.62h3.89c-0.1-0.23-0.24-0.43-0.43-0.62C824.14,303.79,823.64,303.58,823.04,303.58z"/>
			<path class="st3" d="M832.27,302.01c0.35-0.15,0.75-0.22,1.19-0.22v1.78c-0.59,0-1.1,0.21-1.51,0.62
				c-0.42,0.43-0.62,0.94-0.62,1.51v3.72h-1.78v-3.72V302h1.78v0.58C831.61,302.35,831.92,302.16,832.27,302.01z"/>
			<path class="st3" d="M843.21,302v7.43h-1.78v-3.71c0-0.59-0.21-1.1-0.62-1.51c-0.42-0.41-0.92-0.62-1.51-0.62
				c-0.29,0-0.56,0.05-0.82,0.16c-0.26,0.11-0.49,0.26-0.69,0.46c-0.42,0.42-0.62,0.92-0.62,1.51c0,0.58,0.21,1.08,0.62,1.5
				c0.2,0.21,0.43,0.36,0.69,0.47c0.26,0.1,0.54,0.16,0.82,0.16c0.3,0,0.56-0.05,0.8-0.15l0.64,1.59c-0.45,0.23-0.98,0.34-1.59,0.34
				c-0.54,0-1.05-0.1-1.5-0.3c-0.46-0.2-0.86-0.48-1.19-0.84c-0.34-0.36-0.6-0.77-0.79-1.25c-0.19-0.47-0.28-0.98-0.28-1.51
				c0-0.54,0.09-1.05,0.28-1.53c0.19-0.47,0.45-0.89,0.79-1.25c0.34-0.36,0.73-0.63,1.19-0.84c0.46-0.2,0.96-0.3,1.5-0.3
				c0.48,0,0.91,0.07,1.29,0.22c0.38,0.15,0.71,0.34,0.99,0.56V302H843.21z"/>
			<path class="st3" d="M849.94,309.43h-1.63c-0.34,0-0.65-0.06-0.95-0.19c-0.3-0.13-0.55-0.3-0.77-0.53
				c-0.22-0.22-0.39-0.48-0.52-0.78c-0.13-0.3-0.19-0.61-0.19-0.95v-6.47l1.78-0.44v2.83h1.04l0.45,1.78h-1.48v2.3
				c0,0.19,0.06,0.35,0.19,0.47c0.13,0.13,0.28,0.19,0.46,0.19h1.19L849.94,309.43z"/>
			<path class="st3" d="M852.32,299.05h1.78v1.78h-1.78V299.05z M852.32,309.43v-7.41h1.78v7.41H852.32z"/>
			<path class="st3" d="M865.31,302.01l-3.44,7.41h-1.96l-3.44-7.41h1.96l2.46,5.31l2.46-5.31H865.31z"/>
			<path class="st3" d="M872.53,306.61h-3.89c0.1,0.23,0.24,0.43,0.43,0.61c0.21,0.21,0.44,0.36,0.7,0.47
				c0.26,0.1,0.53,0.16,0.82,0.16c0.4,0,0.77-0.09,1.08-0.28l1.85,0.74c-0.36,0.42-0.79,0.74-1.29,0.97
				c-0.5,0.23-1.05,0.35-1.65,0.35c-0.54,0-1.05-0.1-1.53-0.3c-0.47-0.2-0.89-0.48-1.25-0.84c-0.36-0.36-0.64-0.77-0.84-1.25
				c-0.2-0.47-0.3-0.98-0.3-1.51c0-0.54,0.1-1.05,0.3-1.53c0.2-0.47,0.48-0.89,0.84-1.25c0.36-0.36,0.77-0.63,1.25-0.84
				c0.47-0.2,0.98-0.3,1.53-0.3c0.54,0,1.05,0.1,1.53,0.3c0.47,0.2,0.89,0.48,1.25,0.84c0.36,0.36,0.64,0.77,0.84,1.25
				c0.2,0.47,0.3,0.98,0.3,1.53c0,0.32-0.03,0.61-0.1,0.89H872.53z M870.59,303.58c-0.57,0-1.08,0.21-1.51,0.62
				c-0.19,0.19-0.33,0.4-0.43,0.62h3.89c-0.1-0.23-0.24-0.43-0.43-0.62C871.68,303.79,871.18,303.58,870.59,303.58z"/>
			<path class="st3" d="M776.76,319.03v7.43h-1.78v-3.71c0-0.59-0.21-1.1-0.62-1.51c-0.42-0.41-0.92-0.62-1.51-0.62
				c-0.29,0-0.56,0.05-0.82,0.16c-0.26,0.11-0.49,0.26-0.69,0.46c-0.42,0.42-0.62,0.92-0.62,1.51c0,0.58,0.21,1.08,0.62,1.5
				c0.2,0.21,0.43,0.36,0.69,0.47c0.26,0.1,0.54,0.16,0.82,0.16c0.3,0,0.56-0.05,0.8-0.15l0.64,1.59c-0.45,0.23-0.98,0.34-1.59,0.34
				c-0.54,0-1.05-0.1-1.51-0.3c-0.46-0.2-0.86-0.48-1.19-0.84c-0.34-0.36-0.6-0.77-0.79-1.25c-0.19-0.47-0.28-0.98-0.28-1.51
				c0-0.54,0.09-1.05,0.28-1.53c0.19-0.47,0.45-0.89,0.79-1.25c0.34-0.36,0.73-0.63,1.19-0.84c0.46-0.2,0.96-0.3,1.51-0.3
				c0.48,0,0.91,0.07,1.29,0.22c0.38,0.15,0.71,0.34,0.99,0.56v-0.59H776.76z"/>
			<path class="st3" d="M783.31,318.83c0.48,0,0.92,0.09,1.32,0.27c0.4,0.18,0.73,0.43,1.02,0.76c0.28,0.32,0.5,0.69,0.65,1.12
				c0.15,0.43,0.23,0.88,0.23,1.36v4.11h-1.78v-4.11c0-0.49-0.17-0.9-0.52-1.23c-0.34-0.34-0.74-0.5-1.22-0.5
				c-0.48,0-0.89,0.17-1.23,0.5c-0.34,0.34-0.5,0.75-0.5,1.23v4.11h-1.78v-7.41h1.78v0.56c0.27-0.23,0.57-0.41,0.9-0.56
				C782.52,318.91,782.9,318.83,783.31,318.83z"/>
			<path class="st3" d="M796.79,316.06v10.4h-1.78v-3.71c0-0.6-0.21-1.11-0.62-1.51c-0.42-0.41-0.91-0.62-1.5-0.62
				c-0.59,0-1.1,0.21-1.51,0.62c-0.42,0.42-0.62,0.92-0.62,1.51c0,0.58,0.21,1.08,0.62,1.5c0.2,0.21,0.43,0.36,0.69,0.47
				c0.26,0.1,0.54,0.16,0.82,0.16c0.29,0,0.55-0.05,0.79-0.15l0.64,1.59c-0.46,0.23-0.98,0.34-1.57,0.34c-0.54,0-1.05-0.1-1.5-0.3
				c-0.46-0.2-0.86-0.48-1.19-0.84s-0.6-0.77-0.79-1.25c-0.19-0.47-0.28-0.98-0.28-1.51c0-0.54,0.09-1.05,0.28-1.53
				c0.19-0.47,0.45-0.89,0.79-1.25c0.34-0.36,0.73-0.63,1.19-0.84c0.46-0.2,0.96-0.3,1.5-0.3c0.47,0,0.9,0.07,1.28,0.22
				c0.38,0.15,0.71,0.34,0.99,0.56v-3.56H796.79z"/>
			<path class="st3" d="M810.82,325.51c-0.36,0.36-0.77,0.64-1.25,0.84c-0.47,0.2-0.98,0.3-1.53,0.3c-0.54,0-1.05-0.1-1.53-0.3
				c-0.47-0.2-0.89-0.48-1.25-0.84c-0.36-0.36-0.64-0.77-0.84-1.25c-0.2-0.47-0.3-0.98-0.3-1.51c0-0.54,0.1-1.05,0.3-1.53
				c0.2-0.47,0.48-0.89,0.84-1.25c0.36-0.36,0.77-0.63,1.25-0.84c0.47-0.2,0.98-0.3,1.53-0.3c0.54,0,1.05,0.1,1.53,0.3
				c0.47,0.2,0.89,0.48,1.25,0.84l-1.26,1.26c-0.42-0.41-0.92-0.62-1.51-0.62c-0.57,0-1.08,0.21-1.51,0.62
				c-0.42,0.42-0.62,0.92-0.62,1.51c0,0.58,0.21,1.08,0.62,1.5c0.21,0.21,0.44,0.36,0.7,0.47c0.26,0.1,0.53,0.16,0.82,0.16
				c0.6,0,1.11-0.21,1.51-0.62L810.82,325.51z"/>
			<path class="st3" d="M816.52,318.83c0.54,0,1.05,0.1,1.53,0.3c0.47,0.2,0.89,0.48,1.25,0.84c0.36,0.36,0.63,0.77,0.84,1.25
				c0.2,0.47,0.3,0.98,0.3,1.53c0,0.53-0.1,1.04-0.3,1.51c-0.2,0.47-0.48,0.89-0.84,1.25c-0.36,0.36-0.77,0.64-1.25,0.84
				c-0.47,0.2-0.98,0.3-1.53,0.3c-0.54,0-1.05-0.1-1.53-0.3c-0.47-0.2-0.89-0.48-1.25-0.84s-0.64-0.77-0.84-1.25s-0.3-0.98-0.3-1.51
				c0-0.54,0.1-1.05,0.3-1.53c0.2-0.47,0.48-0.89,0.84-1.25c0.36-0.36,0.77-0.63,1.25-0.84
				C815.46,318.94,815.97,318.83,816.52,318.83z M816.52,320.61c-0.59,0-1.1,0.21-1.51,0.62c-0.42,0.42-0.62,0.92-0.62,1.51
				c0,0.58,0.21,1.08,0.62,1.5c0.2,0.21,0.43,0.36,0.69,0.47c0.26,0.1,0.54,0.16,0.82,0.16c0.29,0,0.56-0.05,0.82-0.16
				c0.26-0.1,0.49-0.26,0.7-0.47c0.41-0.42,0.62-0.91,0.62-1.5c0-0.59-0.21-1.1-0.62-1.51
				C817.59,320.82,817.09,320.61,816.52,320.61z"/>
			<path class="st3" d="M825.46,321.86c0.12,0.03,0.32,0.1,0.59,0.21c0.28,0.11,0.56,0.26,0.85,0.45c0.29,0.19,0.55,0.43,0.76,0.72
				c0.22,0.29,0.33,0.63,0.33,1.02c0,0.35-0.06,0.66-0.17,0.95c-0.11,0.29-0.28,0.54-0.5,0.76c-0.22,0.22-0.48,0.39-0.8,0.5
				c-0.32,0.12-0.67,0.18-1.07,0.18c-0.6,0-1.16-0.11-1.68-0.33c-0.52-0.22-0.94-0.48-1.25-0.8l1.23-1.23
				c0.26,0.31,0.53,0.5,0.82,0.59c0.29,0.09,0.54,0.13,0.73,0.13c0.31,0,0.53-0.06,0.68-0.18c0.15-0.12,0.22-0.26,0.22-0.43
				c0-0.12-0.05-0.22-0.15-0.31c-0.1-0.09-0.21-0.16-0.35-0.22c-0.13-0.06-0.27-0.11-0.41-0.14c-0.14-0.03-0.25-0.07-0.34-0.1
				c-0.12-0.04-0.32-0.11-0.6-0.21c-0.28-0.1-0.57-0.24-0.86-0.43c-0.29-0.19-0.55-0.43-0.76-0.71c-0.22-0.29-0.33-0.63-0.33-1.04
				c0-0.42,0.07-0.77,0.22-1.08c0.14-0.3,0.33-0.55,0.57-0.75c0.24-0.2,0.51-0.34,0.82-0.44c0.31-0.09,0.62-0.14,0.95-0.14
				c0.5,0,0.93,0.06,1.28,0.18c0.35,0.12,0.64,0.25,0.87,0.39c0.26,0.17,0.47,0.36,0.65,0.56l-1.25,1.25
				c-0.2-0.26-0.42-0.44-0.65-0.56c-0.24-0.12-0.49-0.18-0.76-0.18c-0.21,0-0.41,0.05-0.62,0.15c-0.2,0.1-0.3,0.26-0.3,0.47
				c0,0.12,0.04,0.22,0.13,0.3c0.09,0.08,0.2,0.15,0.33,0.21c0.13,0.05,0.26,0.1,0.41,0.14
				C825.21,321.8,825.34,321.83,825.46,321.86z"/>
			<path class="st3" d="M838.54,318.83c0.42,0,0.78,0.08,1.09,0.24c0.31,0.16,0.57,0.38,0.76,0.65c0.2,0.28,0.35,0.6,0.44,0.96
				c0.1,0.37,0.15,0.76,0.15,1.19v4.58h-1.78v-4.58c0-0.35-0.12-0.64-0.37-0.89c-0.24-0.25-0.53-0.37-0.89-0.37
				c-0.36,0-0.65,0.12-0.89,0.37c-0.25,0.25-0.37,0.54-0.37,0.89v4.58h-1.78v-4.58c0-0.35-0.12-0.64-0.37-0.89
				c-0.12-0.13-0.25-0.22-0.41-0.28c-0.15-0.06-0.31-0.09-0.48-0.09c-0.37,0-0.67,0.12-0.9,0.37c-0.25,0.25-0.37,0.54-0.37,0.89
				v4.58h-1.78v-7.41h1.78v0.65c0.29-0.25,0.59-0.45,0.9-0.62c0.32-0.16,0.64-0.24,0.96-0.24c0.44,0,0.81,0.09,1.1,0.27
				c0.29,0.18,0.54,0.43,0.77,0.74c0.27-0.29,0.61-0.53,1.04-0.72C837.57,318.93,838.04,318.83,838.54,318.83z"/>
			<path class="st3" d="M849.36,323.64h-3.89c0.1,0.23,0.24,0.43,0.43,0.61c0.21,0.21,0.44,0.36,0.7,0.47
				c0.26,0.1,0.53,0.16,0.82,0.16c0.41,0,0.77-0.09,1.08-0.28l1.85,0.74c-0.36,0.42-0.79,0.74-1.29,0.97
				c-0.5,0.23-1.05,0.35-1.65,0.35c-0.54,0-1.05-0.1-1.53-0.3c-0.47-0.2-0.89-0.48-1.25-0.84c-0.36-0.36-0.64-0.77-0.84-1.25
				s-0.3-0.98-0.3-1.51c0-0.54,0.1-1.05,0.3-1.53c0.2-0.47,0.48-0.89,0.84-1.25c0.36-0.36,0.77-0.63,1.25-0.84
				c0.47-0.2,0.98-0.3,1.53-0.3c0.54,0,1.05,0.1,1.53,0.3c0.47,0.2,0.89,0.48,1.25,0.84c0.36,0.36,0.64,0.77,0.84,1.25
				c0.2,0.47,0.3,0.98,0.3,1.53c0,0.32-0.03,0.61-0.1,0.89H849.36z M847.42,320.61c-0.57,0-1.08,0.21-1.51,0.62
				c-0.19,0.19-0.33,0.4-0.43,0.62h3.89c-0.1-0.23-0.24-0.43-0.43-0.62C848.52,320.82,848.01,320.61,847.42,320.61z"/>
			<path class="st3" d="M857.85,326.46h-1.63c-0.34,0-0.65-0.06-0.95-0.19c-0.3-0.13-0.55-0.3-0.77-0.53
				c-0.22-0.22-0.39-0.48-0.52-0.78c-0.13-0.3-0.19-0.61-0.19-0.95v-6.47l1.78-0.44v2.83h1.04l0.45,1.78h-1.48v2.3
				c0,0.19,0.06,0.35,0.19,0.47c0.13,0.13,0.28,0.19,0.46,0.19h1.19L857.85,326.46z"/>
			<path class="st3" d="M860.22,316.08H862v1.78h-1.78V316.08z M860.22,326.46v-7.41H862v7.41H860.22z"/>
			<path class="st3" d="M871.28,325.51c-0.36,0.36-0.77,0.64-1.25,0.84c-0.47,0.2-0.98,0.3-1.53,0.3c-0.54,0-1.05-0.1-1.53-0.3
				c-0.47-0.2-0.89-0.48-1.25-0.84c-0.36-0.36-0.64-0.77-0.84-1.25s-0.3-0.98-0.3-1.51c0-0.54,0.1-1.05,0.3-1.53
				c0.2-0.47,0.48-0.89,0.84-1.25c0.36-0.36,0.77-0.63,1.25-0.84c0.47-0.2,0.98-0.3,1.53-0.3c0.54,0,1.05,0.1,1.53,0.3
				c0.47,0.2,0.89,0.48,1.25,0.84l-1.26,1.26c-0.42-0.41-0.92-0.62-1.51-0.62c-0.57,0-1.08,0.21-1.51,0.62
				c-0.42,0.42-0.62,0.92-0.62,1.51c0,0.58,0.21,1.08,0.62,1.5c0.21,0.21,0.44,0.36,0.7,0.47c0.26,0.1,0.53,0.16,0.82,0.16
				c0.6,0,1.11-0.21,1.51-0.62L871.28,325.51z"/>
			<path class="st3" d="M771.87,336.07c0.35-0.15,0.75-0.22,1.19-0.22v1.78c-0.59,0-1.1,0.21-1.51,0.62
				c-0.42,0.43-0.62,0.94-0.62,1.51v3.72h-1.78v-3.72v-3.71h1.78v0.58C771.21,336.41,771.52,336.22,771.87,336.07z"/>
			<path class="st3" d="M782.81,336.06v7.43h-1.78v-3.71c0-0.59-0.21-1.1-0.62-1.51c-0.42-0.42-0.92-0.62-1.51-0.62
				c-0.29,0-0.56,0.05-0.82,0.16c-0.26,0.11-0.49,0.26-0.69,0.46c-0.42,0.42-0.62,0.92-0.62,1.51c0,0.58,0.21,1.08,0.62,1.5
				c0.2,0.21,0.43,0.36,0.69,0.47c0.26,0.1,0.54,0.16,0.82,0.16c0.3,0,0.56-0.05,0.8-0.15l0.64,1.59c-0.45,0.23-0.98,0.34-1.59,0.34
				c-0.54,0-1.05-0.1-1.51-0.3c-0.46-0.2-0.86-0.48-1.19-0.84c-0.34-0.36-0.6-0.77-0.79-1.25c-0.19-0.47-0.28-0.98-0.28-1.51
				c0-0.54,0.09-1.05,0.28-1.53c0.19-0.47,0.45-0.89,0.79-1.25c0.34-0.36,0.73-0.64,1.19-0.84c0.46-0.2,0.96-0.3,1.51-0.3
				c0.48,0,0.91,0.07,1.29,0.22c0.38,0.15,0.71,0.34,0.99,0.56v-0.59H782.81z"/>
			<path class="st3" d="M793.22,333.09v10.4h-1.78v-3.71c0-0.6-0.21-1.11-0.62-1.51c-0.41-0.42-0.91-0.62-1.5-0.62
				c-0.59,0-1.1,0.21-1.51,0.62c-0.42,0.42-0.62,0.92-0.62,1.51c0,0.58,0.21,1.08,0.62,1.5c0.2,0.21,0.43,0.36,0.69,0.47
				c0.26,0.1,0.54,0.16,0.82,0.16c0.29,0,0.55-0.05,0.79-0.15l0.64,1.59c-0.45,0.23-0.98,0.34-1.57,0.34c-0.54,0-1.05-0.1-1.51-0.3
				c-0.46-0.2-0.86-0.48-1.19-0.84c-0.34-0.36-0.6-0.77-0.79-1.25c-0.19-0.47-0.28-0.98-0.28-1.51c0-0.54,0.09-1.05,0.28-1.53
				c0.19-0.47,0.45-0.89,0.79-1.25c0.34-0.36,0.73-0.64,1.19-0.84c0.46-0.2,0.96-0.3,1.51-0.3c0.47,0,0.9,0.07,1.28,0.22
				c0.38,0.15,0.71,0.34,0.99,0.56v-3.56H793.22z"/>
			<path class="st3" d="M796.04,333.11h1.78v1.78h-1.78V333.11z M796.04,343.49v-7.41h1.78v7.41H796.04z"/>
			<path class="st3" d="M804.33,335.87c0.54,0,1.05,0.1,1.53,0.3c0.47,0.2,0.89,0.48,1.25,0.84c0.36,0.36,0.64,0.77,0.84,1.25
				c0.2,0.47,0.3,0.98,0.3,1.53c0,0.53-0.1,1.04-0.3,1.51c-0.2,0.47-0.48,0.89-0.84,1.25c-0.36,0.36-0.77,0.63-1.25,0.84
				c-0.47,0.2-0.98,0.3-1.53,0.3c-0.54,0-1.05-0.1-1.53-0.3c-0.47-0.2-0.89-0.48-1.25-0.84c-0.36-0.36-0.64-0.77-0.84-1.25
				c-0.2-0.47-0.3-0.98-0.3-1.51c0-0.54,0.1-1.05,0.3-1.53c0.2-0.47,0.48-0.89,0.84-1.25c0.36-0.36,0.77-0.64,1.25-0.84
				C803.27,335.97,803.78,335.87,804.33,335.87z M804.33,337.65c-0.59,0-1.1,0.21-1.51,0.62c-0.42,0.42-0.62,0.92-0.62,1.51
				c0,0.58,0.21,1.08,0.62,1.5c0.2,0.21,0.43,0.36,0.69,0.47c0.26,0.1,0.54,0.16,0.82,0.16c0.29,0,0.56-0.05,0.82-0.16
				c0.26-0.1,0.49-0.26,0.7-0.47c0.42-0.41,0.62-0.91,0.62-1.5c0-0.59-0.21-1.1-0.62-1.51C805.4,337.85,804.9,337.65,804.33,337.65z
				"/>
			<path class="st3" d="M810.84,343.49v-10.38h1.78v10.38H810.84z"/>
			<path class="st3" d="M819.13,335.87c0.54,0,1.05,0.1,1.53,0.3c0.47,0.2,0.89,0.48,1.25,0.84c0.36,0.36,0.64,0.77,0.84,1.25
				c0.2,0.47,0.3,0.98,0.3,1.53c0,0.53-0.1,1.04-0.3,1.51c-0.2,0.47-0.48,0.89-0.84,1.25c-0.36,0.36-0.77,0.63-1.25,0.84
				c-0.47,0.2-0.98,0.3-1.53,0.3c-0.54,0-1.05-0.1-1.53-0.3c-0.47-0.2-0.89-0.48-1.25-0.84c-0.36-0.36-0.64-0.77-0.84-1.25
				c-0.2-0.47-0.3-0.98-0.3-1.51c0-0.54,0.1-1.05,0.3-1.53c0.2-0.47,0.48-0.89,0.84-1.25c0.36-0.36,0.77-0.64,1.25-0.84
				C818.07,335.97,818.58,335.87,819.13,335.87z M819.13,337.65c-0.59,0-1.1,0.21-1.51,0.62c-0.42,0.42-0.62,0.92-0.62,1.51
				c0,0.58,0.21,1.08,0.62,1.5c0.2,0.21,0.43,0.36,0.69,0.47c0.26,0.1,0.54,0.16,0.82,0.16c0.29,0,0.56-0.05,0.82-0.16
				c0.26-0.1,0.49-0.26,0.7-0.47c0.42-0.41,0.62-0.91,0.62-1.5c0-0.59-0.21-1.1-0.62-1.51C820.2,337.85,819.7,337.65,819.13,337.65z
				"/>
			<path class="st3" d="M833.24,342.75c0,0.53-0.1,1.04-0.3,1.51c-0.2,0.47-0.48,0.89-0.84,1.25c-0.36,0.36-0.77,0.64-1.25,0.85
				c-0.47,0.21-0.98,0.31-1.53,0.31c-0.44,0-0.87-0.07-1.26-0.21c-0.4-0.14-0.76-0.34-1.1-0.59l1.29-1.28
				c0.32,0.2,0.67,0.3,1.07,0.3c0.6,0,1.11-0.21,1.51-0.64c0.41-0.42,0.62-0.91,0.62-1.5v-2.98c0-0.57-0.21-1.08-0.62-1.51
				c-0.42-0.42-0.92-0.62-1.51-0.62c-0.57,0-1.08,0.21-1.51,0.62c-0.42,0.43-0.62,0.94-0.62,1.51c0,0.59,0.21,1.1,0.62,1.51
				c0.43,0.42,0.94,0.62,1.51,0.62c0.3,0,0.56-0.05,0.8-0.15l0.67,1.66c-0.44,0.18-0.92,0.27-1.44,0.27h-0.03
				c-0.53,0-1.04-0.1-1.51-0.3c-0.47-0.2-0.89-0.48-1.25-0.84c-0.36-0.36-0.64-0.77-0.84-1.25c-0.21-0.47-0.31-0.98-0.31-1.53
				c0-0.54,0.09-1.05,0.27-1.53c0.18-0.47,0.43-0.89,0.75-1.25c0.32-0.36,0.71-0.64,1.16-0.84c0.45-0.2,0.94-0.3,1.48-0.3
				c0.51,0,0.97,0.08,1.36,0.23c0.4,0.15,0.74,0.34,1.04,0.57v-0.58h1.78V342.75z"/>
			<path class="st3" d="M844.31,336.07l-3.44,7.41l-0.46,1.01c-0.28,0.6-0.69,1.08-1.25,1.44c-0.55,0.36-1.17,0.53-1.84,0.53h-0.79
				l0.44-1.78h0.43c0.29,0,0.55-0.08,0.8-0.24c0.25-0.16,0.43-0.37,0.55-0.64l0.15-0.33l-3.44-7.41h1.96l2.46,5.31l2.46-5.31H844.31
				z"/>
		</g>
		<g>
			<path class="st4" d="M772.91,175.96l-12.86,32.04c-1.47,4.22,1.43,5.71,0.99,8.6c-0.28,1.82-2.21,4.47-3.63,7.41
				c-0.52,1.08-1.69,4.21-1.86,4.73c-1.48,4.58-0.61,13.09-0.49,18.63c0.22,9.87-11.61,19.7-12,29.83l-2.02,52.62
				c-3.24-23.86-5.88-48.73-9.99-72.36c-1.05-6.01-1.72-11.14,2-17.17c3.61-5.85,8.25-7.47,9.91-12.67
				c1.61-5.01-0.21-10.36-3.84-14.4c-9.99-11.1-25.38-26.01-35.88-37c7.35,4.34,26.09,22.16,38.06,28.84
				c7.62,4.25,9.67,3.17,14.67-3.33C762.2,193.64,770.47,179.67,772.91,175.96L772.91,175.96z M742.74,190.9
				c-2.66,1.17-3.35,5.29-1.55,9.21c1.8,3.92,5.42,6.16,8.08,4.99c2.66-1.16,3.35-5.29,1.55-9.21
				C749.01,191.97,745.4,189.74,742.74,190.9L742.74,190.9L742.74,190.9z"/>
			<g>
				<g>
					<path class="st2" d="M759.75,221.86c0.86,0.18,7.35,1.4,9.8,2.15c-1.12,4.32,4.2,6.47,9.09,7.49c6.88,1.44,8.97-4.27,2.9-10.48
						c-4.2-4.3-18.9-7.06-19.91-7.25l-1.18-0.24c0,0,0.09,0.21,0.18,0.46c0.14,0.34,0.32,0.86,0.4,1.43c0.08,0.53,0.07,1.1-0.1,1.66
						c-0.12,0.41-0.31,0.92-0.57,1.44c-0.22,0.43-0.45,0.91-0.69,1.32c-0.57,1-1.03,1.84-1.03,1.84L759.75,221.86z M775.95,224.56
						c-0.84-0.22-1.35-1.08-1.13-1.91c0.22-0.84,1.08-1.35,1.92-1.13c0.84,0.22,1.35,1.08,1.13,1.92
						C777.65,224.27,776.8,224.78,775.95,224.56z M732.74,267.81l-1.44,0.77c-1.83,0.93-3.4,1.88-4.5,2.84
						c-9.18,8.02-1.83,17.85,5.74,22.91c13.24,8.84,16.17,13.9,11.8,17.92c-1.19,0.98-2.72,2.11-2.72,2.11s-0.16,4.08-0.2,5.22
						c0.91-0.45,2.86-1.67,2.91-1.69c6.23-3.7,15.46-12.05-6.75-26.78c-9-5.96-9.75-10.89-6.82-14.28c0.36-0.42,2.35-1.87,2.99-2.3
						l-0.2-1.33l-0.37-2.49L732.74,267.81z M733.99,330.48c0.31-3.56,1.67-5.99,3.46-7.83c0.5-0.55,1.84-1.54,2.38-1.96
						c-0.19-1.5-0.58-4.51-0.61-4.72c-0.34,0.22-1.4,1.02-1.8,1.32c-3.65,3.03-6.55,6.69-6.84,10.94
						c-0.72,10.88,8.32,16.96,15.35,19.22C737.23,342.5,733.44,336.93,733.99,330.48z M740.07,214.4c-0.5,0.13-1.99,0.52-2.44,0.61
						c-11.81,2.79-31.13,14.06-13.96,22.92c3.36,1.73,9.23,3.42,19.98,4.62c12.98,1.45,19.2,9.32,10.73,16.14
						c-0.64,0.52-3.11,1.72-4.22,2.01c0,0-0.54,0.91-1.15,1.94c-0.61,1.02-1.29,2.14-1.61,2.69c-0.23,0.39-0.91,1.62-1.48,2.7
						c-0.57,1.09-0.98,2.01-0.98,2.01c0.09-0.03,2.31-0.99,2.4-1.02c4.17-1.49,8.34-3.12,11.58-5.31
						c11.72-7.92,9.34-23.45-8.65-27.09c-10.44-2.12-16.69-2.59-20.58-4.34c-5.52-2.47-0.52-6.36,7.88-8.64
						c1.13-0.32,4.06-0.95,5.86-1.29c0,0-0.1-1.06-0.49-2.4c-0.17-0.6-0.41-1.26-0.7-1.9c-0.48-1.08-0.99-1.93-1.39-2.55
						C740.39,214.78,740.07,214.4,740.07,214.4z"/>
				</g>
			</g>
		</g>
	</g>
	<g>
		<path d="M569.97,396.27v-18.76h1.3v18.76H569.97z"/>
		<path d="M595.22,396.27v-14.83l-8.31,11.86l-8.43-11.89v14.86h-1.3v-18.99l9.72,13.73l9.61-13.73v18.99H595.22z"/>
		<path d="M604.28,391.51l-2.22,4.76h-1.44l8.83-18.99l8.34,18.99h-1.41l-2.11-4.76H604.28z M609.39,380.48l-4.5,9.72h8.8
			L609.39,380.48z"/>
		<path d="M636.19,396.27h-6.78c-1.71,0-3.29-0.42-4.73-1.27c-1.44-0.85-2.59-2-3.43-3.45c-0.85-1.45-1.27-3.04-1.27-4.78
			c0-1.71,0.42-3.29,1.27-4.75c0.85-1.45,1.99-2.61,3.43-3.46c1.44-0.86,3.02-1.28,4.73-1.28c1.31,0,2.56,0.27,3.77,0.81
			c1.2,0.54,2.25,1.29,3.13,2.25l-0.95,0.89c-0.77-0.83-1.67-1.47-2.71-1.92c-1.04-0.45-2.12-0.68-3.23-0.68
			c-1.46,0-2.82,0.37-4.07,1.1c-1.25,0.73-2.24,1.72-2.97,2.96c-0.73,1.24-1.1,2.6-1.1,4.08s0.37,2.85,1.1,4.1
			c0.73,1.25,1.72,2.25,2.97,2.99s2.61,1.11,4.07,1.11h5.42v-6.72h-6.18v-1.3h7.53V396.27z"/>
		<path d="M641.73,396.27v-18.76h12.15v1.33h-10.85v7.39h8.45v1.33h-8.45v7.36h10.85v1.36H641.73z"/>
		<path d="M670.01,381.03v15.24h-1.3v-18.99l12.98,15.52v-15.29h1.3v19.07L670.01,381.03z"/>
		<path d="M696.85,396.47c-1.71,0-3.3-0.43-4.76-1.28c-1.46-0.86-2.62-2.02-3.46-3.49c-0.85-1.47-1.27-3.07-1.27-4.8
			s0.42-3.33,1.27-4.8c0.85-1.47,2-2.63,3.46-3.49c1.46-0.86,3.05-1.28,4.76-1.28c1.71,0,3.3,0.43,4.76,1.28
			c1.46,0.86,2.62,2.02,3.46,3.49c0.85,1.47,1.27,3.07,1.27,4.8s-0.42,3.33-1.27,4.8c-0.85,1.47-2,2.64-3.46,3.49
			C700.15,396.04,698.56,396.47,696.85,396.47z M696.85,378.64c-1.48,0-2.85,0.37-4.1,1.11c-1.25,0.74-2.25,1.74-2.99,3
			c-0.74,1.26-1.11,2.64-1.11,4.14c0,1.5,0.37,2.88,1.11,4.14c0.74,1.26,1.74,2.26,2.99,3c1.25,0.74,2.62,1.11,4.1,1.11
			c1.48,0,2.85-0.37,4.1-1.11c1.25-0.74,2.24-1.74,2.97-3c0.73-1.26,1.1-2.64,1.1-4.14c0-1.5-0.37-2.88-1.1-4.14
			c-0.73-1.26-1.72-2.26-2.97-3C699.69,379.01,698.33,378.64,696.85,378.64z"/>
		<path d="M724.49,377.51v1.33h-7.42v17.43h-1.33v-17.43h-7.44v-1.33H724.49z"/>
		<path d="M738.25,396.27v-18.76h12.15v1.33h-10.85v7.39h8.48v1.36h-8.48v8.69H738.25z"/>
		<path d="M762.81,396.47c-1.71,0-3.3-0.43-4.76-1.28c-1.46-0.86-2.62-2.02-3.46-3.49s-1.27-3.07-1.27-4.8s0.42-3.33,1.27-4.8
			c0.85-1.47,2-2.63,3.46-3.49c1.46-0.86,3.05-1.28,4.76-1.28s3.3,0.43,4.76,1.28c1.46,0.86,2.62,2.02,3.46,3.49
			c0.85,1.47,1.27,3.07,1.27,4.8s-0.42,3.33-1.27,4.8c-0.85,1.47-2,2.64-3.46,3.49C766.11,396.04,764.52,396.47,762.81,396.47z
			 M762.81,378.64c-1.48,0-2.85,0.37-4.1,1.11c-1.25,0.74-2.25,1.74-2.99,3c-0.74,1.26-1.11,2.64-1.11,4.14
			c0,1.5,0.37,2.88,1.11,4.14c0.74,1.26,1.74,2.26,2.99,3c1.25,0.74,2.62,1.11,4.1,1.11s2.85-0.37,4.1-1.11
			c1.25-0.74,2.24-1.74,2.97-3c0.73-1.26,1.1-2.64,1.1-4.14c0-1.5-0.37-2.88-1.1-4.14c-0.73-1.26-1.72-2.26-2.97-3
			C765.66,379.01,764.29,378.64,762.81,378.64z"/>
		<path d="M783.64,396.47c-0.94,0-1.85-0.19-2.73-0.56s-1.65-0.91-2.32-1.6c-0.67-0.65-1.19-1.42-1.54-2.31
			c-0.36-0.88-0.53-1.82-0.53-2.8v-11.69h1.3v11.69c0,0.81,0.15,1.58,0.45,2.31c0.3,0.73,0.72,1.37,1.25,1.9
			c0.56,0.56,1.19,0.99,1.9,1.28c0.71,0.3,1.45,0.45,2.22,0.45c0.79,0,1.54-0.15,2.25-0.45c0.71-0.3,1.35-0.73,1.9-1.28
			c0.54-0.54,0.96-1.17,1.26-1.9c0.3-0.73,0.45-1.5,0.45-2.31v-11.69h1.3v11.69c0,0.98-0.18,1.91-0.53,2.8
			c-0.36,0.88-0.87,1.65-1.54,2.31c-0.67,0.69-1.44,1.23-2.31,1.6C785.54,396.28,784.62,396.47,783.64,396.47z"/>
		<path d="M797.4,381.03v15.24h-1.3v-18.99l12.99,15.52v-15.29h1.3v19.07L797.4,381.03z"/>
		<path d="M821.32,396.27h-5.4v-18.76h5.4c1.33,0,2.56,0.25,3.69,0.74c1.13,0.49,2.12,1.19,2.94,2.09c0.79,0.87,1.39,1.86,1.82,2.97
			c0.42,1.12,0.63,2.3,0.63,3.55c0,1.25-0.21,2.43-0.63,3.55c-0.42,1.12-1.03,2.12-1.82,3c-0.83,0.92-1.81,1.63-2.94,2.12
			C823.88,396.02,822.65,396.27,821.32,396.27z M817.23,394.97h4.1c2.33,0,4.22-0.82,5.68-2.45c0.67-0.73,1.19-1.58,1.54-2.55
			c0.36-0.97,0.53-2.01,0.53-3.1c0-1.08-0.18-2.1-0.53-3.07c-0.36-0.97-0.87-1.82-1.54-2.55c-1.48-1.6-3.38-2.4-5.68-2.4h-4.1
			V394.97z"/>
	</g>
</g>
<g>
</g>
<g>
</g>
<g>
</g>
<g>
</g>
<g>
</g>
<g>
</g>
<g>
</g>
<g>
</g>
<g>
</g>
<g>
</g>
<g>
</g>
<g>
</g>
<g>
</g>
<g>
</g>
<g>
</g>
</svg>
