<?xml version="1.0" encoding="utf-8"?>
<!-- Generator: Adobe Illustrator 23.0.0, SVG Export Plug-In . SVG Version: 6.00 Build 0)  -->
<svg version="1.1" id="Capa_1" xmlns="http://www.w3.org/2000/svg" xmlns:xlink="http://www.w3.org/1999/xlink" x="0px" y="0px"
	 viewBox="0 0 94 138.37" enable-background="new 0 0 94 138.37" xml:space="preserve">
<g>
	<g>
		<path fill="#FFFFFF" d="M6.6,66.37l2.8,67.82c0,2.13,1.74,4.18,3.88,4.18h71.74c2.13,0,3.88-2.05,3.88-4.18l2.8-67.82H6.6z"/>
		<g>
			<path fill="#FFFFFF" d="M53.09,47.36c0,2.36-1.91,4.26-4.26,4.26c-2.35,0-4.26-1.91-4.26-4.26c0-2.35,1.91-4.26,4.26-4.26
				C51.18,43.09,53.09,45,53.09,47.36z"/>
			<path fill="#FFFFFF" d="M34.22,5.45C26.34-5.82,14.35,3.88,14.35,3.88c-11.27,7.63-3.39,19.27-3.39,19.27
				c7.63,11.39,38.42,24.21,38.42,24.21C48.82,28.48,34.22,5.45,34.22,5.45z M19.07,21.21c-5.7-5.94,0.61-10.91,0.61-10.91
				c4.24-3.76,9.14,1.21,9.14,1.21c12.9,12.72,18.85,33.57,18.85,33.57C29.62,34.9,19.07,21.21,19.07,21.21z"/>
			<path fill="#FFFFFF" d="M64.03,21.93c0,0-15.87-11.71-14.66,25.42C49.37,47.36,78.21,31.51,64.03,21.93z M50.5,45.12
				c1.94-24.8,10.1-17.94,10.1-17.94C67.63,32.44,50.5,45.12,50.5,45.12z"/>
			<path fill="#FFFFFF" d="M92.63,34.42c0,0-3.51,12.19-43.26,12.94c0,0,27.75-2.88,36.72-17.3c0,0,1.17,4.08-0.69,6.83
				C85.4,36.88,89.84,36.23,92.63,34.42z"/>
			<path fill="#FFFFFF" d="M71.83,38.25c0,0-7.03,6.01-22.46,9.1c0,0,12.77-4.34,17.61-9.99c0,0,0.02,1.66-0.53,2.75
				C66.46,40.11,69.36,39.63,71.83,38.25z"/>
		</g>
		<path fill="#FFFFFF" d="M94,60.46c0,1.61-1.3,2.91-2.91,2.91H2.91C1.3,63.37,0,62.07,0,60.46V50.28c0-1.61,1.3-2.91,2.91-2.91
			h88.18c1.61,0,2.91,1.3,2.91,2.91V60.46z"/>
	</g>
	<g>
		<g>
			<defs>
				<path id="SVGID_1_" d="M6.6,66.37l2.8,67.82c0,2.13,1.74,4.18,3.88,4.18h71.74c2.13,0,3.88-2.05,3.88-4.18l2.8-67.82H6.6z"/>
			</defs>
			<clipPath id="SVGID_2_">
				<use xlink:href="#SVGID_1_"  overflow="visible"/>
			</clipPath>
			<g clip-path="url(#SVGID_2_)">
				<g>
					
						<line fill="none" stroke="#62C2E8" stroke-width="2.914" stroke-miterlimit="10" x1="17.72" y1="33.88" x2="-61.71" y2="152.7"/>
					
						<line fill="none" stroke="#62C2E8" stroke-width="2.914" stroke-miterlimit="10" x1="26.6" y1="33.88" x2="-52.83" y2="152.7"/>
					
						<line fill="none" stroke="#62C2E8" stroke-width="2.914" stroke-miterlimit="10" x1="35.48" y1="33.88" x2="-43.95" y2="152.7"/>
					
						<line fill="none" stroke="#62C2E8" stroke-width="2.914" stroke-miterlimit="10" x1="44.36" y1="33.88" x2="-35.07" y2="152.7"/>
					
						<line fill="none" stroke="#62C2E8" stroke-width="2.914" stroke-miterlimit="10" x1="53.25" y1="33.88" x2="-26.19" y2="152.7"/>
					
						<line fill="none" stroke="#62C2E8" stroke-width="2.914" stroke-miterlimit="10" x1="62.13" y1="33.88" x2="-17.3" y2="152.7"/>
					
						<line fill="none" stroke="#62C2E8" stroke-width="2.914" stroke-miterlimit="10" x1="71.01" y1="33.88" x2="-8.42" y2="152.7"/>
					<line fill="none" stroke="#62C2E8" stroke-width="2.914" stroke-miterlimit="10" x1="79.89" y1="33.88" x2="0.46" y2="152.7"/>
					<line fill="none" stroke="#62C2E8" stroke-width="2.914" stroke-miterlimit="10" x1="88.77" y1="33.88" x2="9.34" y2="152.7"/>
					
						<line fill="none" stroke="#62C2E8" stroke-width="2.914" stroke-miterlimit="10" x1="97.65" y1="33.88" x2="18.22" y2="152.7"/>
					
						<line fill="none" stroke="#62C2E8" stroke-width="2.914" stroke-miterlimit="10" x1="106.53" y1="33.88" x2="27.1" y2="152.7"/>
					
						<line fill="none" stroke="#62C2E8" stroke-width="2.914" stroke-miterlimit="10" x1="115.41" y1="33.88" x2="35.98" y2="152.7"/>
					
						<line fill="none" stroke="#62C2E8" stroke-width="2.914" stroke-miterlimit="10" x1="124.29" y1="33.88" x2="44.86" y2="152.7"/>
					
						<line fill="none" stroke="#62C2E8" stroke-width="2.914" stroke-miterlimit="10" x1="133.17" y1="33.88" x2="53.74" y2="152.7"/>
					
						<line fill="none" stroke="#62C2E8" stroke-width="2.914" stroke-miterlimit="10" x1="142.05" y1="33.88" x2="62.62" y2="152.7"/>
					
						<line fill="none" stroke="#62C2E8" stroke-width="2.914" stroke-miterlimit="10" x1="150.93" y1="33.88" x2="71.5" y2="152.7"/>
					
						<line fill="none" stroke="#62C2E8" stroke-width="2.914" stroke-miterlimit="10" x1="159.81" y1="33.88" x2="80.38" y2="152.7"/>
					
						<line fill="none" stroke="#62C2E8" stroke-width="2.914" stroke-miterlimit="10" x1="168.69" y1="33.88" x2="89.26" y2="152.7"/>
					
						<line fill="none" stroke="#62C2E8" stroke-width="2.914" stroke-miterlimit="10" x1="177.57" y1="33.88" x2="98.14" y2="152.7"/>
					
						<line fill="none" stroke="#62C2E8" stroke-width="2.914" stroke-miterlimit="10" x1="186.46" y1="33.88" x2="107.02" y2="152.7"/>
					
						<line fill="none" stroke="#62C2E8" stroke-width="2.914" stroke-miterlimit="10" x1="195.34" y1="33.88" x2="115.91" y2="152.7"/>
					
						<line fill="none" stroke="#62C2E8" stroke-width="2.914" stroke-miterlimit="10" x1="204.22" y1="33.88" x2="124.79" y2="152.7"/>
				</g>
			</g>
		</g>
	</g>
</g>
<g>
</g>
<g>
</g>
<g>
</g>
<g>
</g>
<g>
</g>
<g>
</g>
<g>
</g>
<g>
</g>
<g>
</g>
<g>
</g>
<g>
</g>
<g>
</g>
<g>
</g>
<g>
</g>
<g>
</g>
</svg>
