<?xml version="1.0" encoding="utf-8"?>
<!-- Generator: Adobe Illustrator 17.0.0, SVG Export Plug-In . SVG Version: 6.00 Build 0)  -->
<!DOCTYPE svg PUBLIC "-//W3C//DTD SVG 1.1//EN" "http://www.w3.org/Graphics/SVG/1.1/DTD/svg11.dtd">
<svg version="1.1" id="Layer_1" xmlns="http://www.w3.org/2000/svg" xmlns:xlink="http://www.w3.org/1999/xlink" x="0px" y="0px"
	 width="1366px" height="768px" viewBox="0 0 1366 768" enable-background="new 0 0 1366 768" xml:space="preserve">
<g>
	<g>
		<defs>
			<rect id="SVGID_1_" width="1366" height="768"/>
		</defs>
		<clipPath id="SVGID_2_">
			<use xlink:href="#SVGID_1_"  overflow="visible"/>
		</clipPath>
		<rect x="-388" y="-220" clip-path="url(#SVGID_2_)" fill="#CE1919" width="2142" height="1208"/>
	</g>
	<g>
		<defs>
			<rect id="SVGID_3_" width="1366" height="768"/>
		</defs>
		<clipPath id="SVGID_4_">
			<use xlink:href="#SVGID_3_"  overflow="visible"/>
		</clipPath>
		<g clip-path="url(#SVGID_4_)">
			<g>
				<defs>
					<polygon id="SVGID_5_" points="1712.996,328.199 736.021,376.52 1692.213,170.334 1663.587,63.5 732.408,363.035 
						1602.653,-83.606 1547.352,-179.39 725.427,350.944 1450.421,-305.713 1372.213,-383.921 715.556,341.073 1245.89,-480.852 
						1150.106,-536.154 703.465,334.093 1003,-597.087 896.166,-625.713 689.98,330.479 738.301,-646.496 627.699,-646.496 
						676.02,330.479 469.834,-625.713 363,-597.087 662.535,334.093 215.894,-536.154 120.109,-480.852 650.444,341.073 
						-6.214,-383.921 -84.421,-305.713 640.573,350.944 -181.352,-179.39 -236.654,-83.606 633.592,363.035 -297.587,63.5 
						-326.213,170.334 629.979,376.52 -346.996,328.199 -346.996,438.801 629.979,390.48 -326.213,596.666 -297.587,703.5 
						633.592,403.965 -236.654,850.606 -181.352,946.391 640.573,416.055 -84.421,1072.714 -6.214,1150.921 650.444,425.927 
						120.109,1247.852 215.894,1303.154 662.535,432.908 363,1364.087 469.834,1392.713 676.02,436.521 627.699,1413.496 
						738.301,1413.496 689.98,436.521 896.166,1392.713 1003,1364.087 703.465,432.907 1150.106,1303.154 1245.89,1247.852 
						715.556,425.927 1372.213,1150.921 1450.421,1072.714 725.427,416.055 1547.352,946.391 1602.653,850.606 732.408,403.965 
						1663.587,703.5 1692.213,596.666 736.021,390.48 1712.996,438.801 					"/>
				</defs>
				<clipPath id="SVGID_6_">
					<use xlink:href="#SVGID_5_"  overflow="visible"/>
				</clipPath>
				<rect x="-400" y="-226" clip-path="url(#SVGID_6_)" fill="#E31818" width="2166" height="1220"/>
			</g>
		</g>
	</g>
</g>
</svg>
