<?xml version="1.0" encoding="utf-8"?>
<!-- Generator: Adobe Illustrator 17.0.0, SVG Export Plug-In . SVG Version: 6.00 Build 0)  -->
<!DOCTYPE svg PUBLIC "-//W3C//DTD SVG 1.1//EN" "http://www.w3.org/Graphics/SVG/1.1/DTD/svg11.dtd">
<svg version="1.1" id="Layer_1" xmlns="http://www.w3.org/2000/svg" xmlns:xlink="http://www.w3.org/1999/xlink" x="0px" y="0px"
	 width="129.391px" height="122.209px" viewBox="0 0 129.391 122.209" enable-background="new 0 0 129.391 122.209"
	 xml:space="preserve">
<g>
	<path fill-rule="evenodd" clip-rule="evenodd" fill="#292D53" d="M67.024,4.198c30.749,0,55.862,25.113,55.862,55.89
		c0,11.271-3.338,21.774-9.148,30.541c-2.142-1.237-4.306-2.363-6.456-3.36c-6.378-3.014-12.12-4.719-16.257-6.332
		c-4.179-1.586-5.654-2.315-8.843-4.993c-3.204-2.703-7.488-7.223-10.961-10.926l23.111,2.538c1.141,0.039,1.27-0.942,0.25-1.397
		l-15.114-4.361l12.924-0.169c0.346-0.044,1.242-0.924-0.232-1.301L76.807,57.83l13.237-2.118c0.944-0.269,0.762-0.964,0.108-1.056
		l-16.06-0.249l13.922-4.628c1.114-0.556,0.618-1.2-0.189-1.123l-15.391,2.322l13.149-7.102c1.15-0.83,0.298-1.389-0.512-1.128
		l-13.51,4.628l11.509-9.327c1.007-0.918-0.075-1.088-0.534-0.869l-12.282,6.625l10.587-11.868c1.155-1.459-0.05-1.251-0.569-0.915
		l-10.679,8.318l8.929-13.508c0.622-1.043-0.042-1.658-0.848-0.85l-8.456,8.833l7.089-14.086c0.383-0.939-1.084-0.963-1.419-0.486
		L51.337,50.299c-0.666-2.083-2.361-4.465-6.796-4.439c-2.979,0.041-4.444,1.384-7.819,1.783c-1.649,0.206-3.624,0.09-5.905-0.142
		c-5.552-0.537-11.239-1.579-17.621-2.547C19.822,21.486,41.469,4.198,67.024,4.198"/>
	<path fill-rule="evenodd" clip-rule="evenodd" fill="#8BB32A" d="M67.024,10.838c27.093,0,49.237,22.129,49.237,49.25
		c0,10.165-3.11,19.608-8.392,27.418c-0.201-0.083-0.396-0.178-0.587-0.237c-6.378-3.014-12.12-4.719-16.257-6.332
		c-4.179-1.586-5.654-2.315-8.843-4.993c-3.204-2.703-7.488-7.223-10.961-10.926l23.111,2.538c1.141,0.039,1.27-0.942,0.25-1.397
		l-15.114-4.361l12.924-0.169c0.346-0.044,1.242-0.924-0.232-1.301L76.807,57.83l13.237-2.118c0.944-0.269,0.762-0.964,0.108-1.056
		l-16.06-0.249l13.922-4.628c1.114-0.556,0.618-1.2-0.189-1.123l-15.391,2.322l13.149-7.102c1.15-0.83,0.298-1.389-0.512-1.128
		l-13.51,4.628l11.509-9.327c1.007-0.918-0.075-1.088-0.534-0.869l-12.282,6.625l10.587-11.868c1.155-1.459-0.05-1.251-0.569-0.915
		l-10.679,8.318l8.929-13.508c0.622-1.043-0.042-1.658-0.848-0.852l-8.456,8.832l7.089-14.082c0.383-0.939-1.084-0.963-1.419-0.489
		L51.337,50.296c-0.666-2.08-2.361-4.461-6.796-4.435c-2.979,0.041-4.444,1.384-7.819,1.783c-1.649,0.206-3.624,0.085-5.905-0.142
		c-3.554-0.34-7.186-0.891-10.994-1.507C25.915,25.696,44.774,10.838,67.024,10.838"/>
	<path fill="#E2231A" d="M75.014,75.91C61.076,69.592,55.218,63.614,43.683,54.26c1.498,0.293,5.181-1.885,6.815-0.686l0.466-1.264
		c-1.075-3.263-2.989-4.807-5.245-5.322c-2.293-0.479-5.764,1.001-6.2,1.15c-1.849,0.565-4.591,0.565-6.43,0.519
		c-1.22-0.026-2.464-0.119-3.914-0.339c-8.498-1.307-16.997-2.37-25.473-3.69l0.885,0.867l24.469,4.159
		c2.31,0.377,4.597,0.655,6.92,1.662c1.916,0.896,3.693,2.298,5.848,4.858c0.629,0.85,1.218,1.656,1.794,2.472
		c7.957,13.22,14.616,16.085,30.709,19.374c21.147,5.157,32.976,10.492,50.91,26.395l0.455-4.292
		C107.208,84.416,91.119,83.222,75.014,75.91 M43.102,48.536c0-0.274,0.375-0.499,0.819-0.499c0.442,0,0.817,0.225,0.817,0.499
		c0,0.287-0.375,0.539-0.817,0.539C43.477,49.075,43.102,48.823,43.102,48.536"/>
	<path fill-rule="evenodd" clip-rule="evenodd" fill="#E2231A" d="M50.573,52.99l23.675-32.032c0.322-0.468,1.476-2.061,1.414-1.542
		c-0.026,0.41-0.339,0.948-0.521,1.274c-8.232,15.689-10.593,24.667-19.662,34.603C52.853,58.154,48.781,56.532,50.573,52.99"/>
	<path fill-rule="evenodd" clip-rule="evenodd" fill="#E2231A" d="M68.393,35.292c2.782-2.926,5.58-5.854,8.383-8.788
		c0.372-0.372,1.584-1.713,1.505-1.198c-0.081,0.344-0.429,0.795-0.655,1.082c-9.389,13.429-12.602,21.388-22.102,29.445
		c-0.51,0.416-1.043,0.699-1.574,0.865c0.64-0.234,1.286-0.628,1.851-1.292C61.685,49.005,64.74,42.973,68.393,35.292"/>
	<path fill-rule="evenodd" clip-rule="evenodd" fill="#E2231A" d="M69.039,40.191c3.412-2.659,6.831-5.32,10.265-7.969
		c0.385-0.328,1.713-1.362,1.539-0.922c-0.109,0.307-0.499,0.694-0.736,0.922c-10.567,11.16-14.632,18.086-24.548,24.261
		c-0.62,0.385-1.226,0.571-1.792,0.631c0.169-0.048,0.329-0.09,0.484-0.149c0.532-0.147,1.082-0.447,1.588-0.874
		C61.628,51.197,65.095,46.298,69.039,40.191"/>
	<path fill-rule="evenodd" clip-rule="evenodd" fill="#E2231A" d="M69.493,44.627c4.018-2.192,8.051-4.382,12.083-6.577
		c0.44-0.213,1.846-1.008,1.614-0.605c-0.162,0.263-0.587,0.558-0.837,0.753C70.608,47.073,65.68,53.012,55.354,57.283
		c-0.699,0.294-1.384,0.366-1.958,0.294c0.138-0.024,0.3-0.031,0.442-0.063c0.572-0.046,1.194-0.239,1.789-0.611
		C61.422,53.297,65.231,49.44,69.493,44.627"/>
	<path fill-rule="evenodd" clip-rule="evenodd" fill="#E2231A" d="M70.327,48.166c4.562-1.544,9.141-3.079,13.721-4.604
		c0.456-0.155,1.954-0.687,1.675-0.342c-0.195,0.259-0.664,0.456-0.939,0.604c-12.928,6.612-18.692,11.544-29.452,13.942
		c-0.801,0.167-1.5,0.092-2.085-0.116h0.407c0.578,0.079,1.264,0,1.958-0.281C61.534,54.911,65.666,51.937,70.327,48.166"/>
	<path fill-rule="evenodd" clip-rule="evenodd" fill="#E2231A" d="M71.449,51.499c4.993-0.736,9.954-1.498,14.934-2.234
		c0.477-0.088,2.083-0.342,1.743-0.042c-0.248,0.217-0.751,0.322-1.073,0.407c-14.054,4.367-20.692,8.259-31.876,8.767
		c-0.898,0.042-1.654-0.167-2.208-0.565c0.112,0.051,0.245,0.057,0.383,0.057c0.58,0.224,1.312,0.304,2.115,0.134
		C61.67,56.63,66.225,54.407,71.449,51.499"/>
	<path fill-rule="evenodd" clip-rule="evenodd" fill="#E2231A" d="M72.999,54.692c5.201,0.072,10.4,0.166,15.6,0.248
		c0.51,0,2.206,0,1.803,0.237c-0.3,0.173-0.837,0.217-1.169,0.265c-15.236,2.103-22.74,4.984-34.316,3.596
		c-1.003-0.122-1.802-0.534-2.293-1.067c0.12,0.052,0.228,0.068,0.344,0.105c0.565,0.39,1.33,0.626,2.225,0.565
		C61.889,58.345,66.983,56.801,72.999,54.692"/>
	<path fill-rule="evenodd" clip-rule="evenodd" fill="#E2231A" d="M75.053,57.975c5.223,0.861,10.475,1.702,15.707,2.556
		c0.528,0.085,2.306,0.359,1.85,0.543c-0.317,0.142-0.902,0.107-1.272,0.107c-16.369-0.169-24.735,1.695-36.764-1.564
		c-1.112-0.311-1.899-0.915-2.333-1.627c0.086,0.05,0.217,0.099,0.309,0.164c0.532,0.548,1.318,0.955,2.317,1.067
		C62.231,60.108,67.964,59.256,75.053,57.975"/>
	<path fill-rule="evenodd" clip-rule="evenodd" fill="#E2231A" d="M77.666,61.584l15.32,4.575c0.558,0.167,2.433,0.688,1.927,0.845
		c-0.379,0.085-1.006-0.022-1.369-0.07c-17.564-2.438-26.787-1.588-39.215-6.731c-1.235-0.524-2.019-1.365-2.376-2.227
		c0.09,0.064,0.226,0.138,0.304,0.21c0.444,0.694,1.237,1.312,2.354,1.618C62.758,62,69.221,61.882,77.666,61.584"/>
	<path fill="#E2231A" d="M69.935,64.573c1.617,1.499,3.182,3.102,4.61,4.714c1.805,1.995,3.487,3.808,5.282,5.473
		c1.796,1.642,3.693,3.127,5.977,4.52c-2.884-0.843-7.665-2.424-9.903-4.463c-4.525-3.011-7.138-6.386-10.598-10.425
		c-0.28-0.269-0.62-0.559-0.997-0.856L69.935,64.573z"/>
	<path fill-rule="evenodd" clip-rule="evenodd" fill="#FFE01E" d="M67.024,17.29c23.552,0,42.781,19.229,42.781,42.798
		c0,9.252-2.952,17.814-7.969,24.827c-4.183-1.673-7.908-2.819-10.812-3.979c-4.179-1.586-5.654-2.315-8.843-4.993
		c-3.204-2.703-7.488-7.223-10.961-10.926l23.111,2.538c1.141,0.039,1.27-0.942,0.25-1.397l-15.114-4.361l12.924-0.169
		c0.346-0.044,1.242-0.924-0.232-1.301L76.807,57.83l13.237-2.118c0.944-0.269,0.762-0.964,0.108-1.056l-16.06-0.249l13.922-4.628
		c1.114-0.556,0.618-1.2-0.189-1.123l-15.391,2.322l13.149-7.102c1.15-0.83,0.298-1.389-0.512-1.128l-13.51,4.628l11.509-9.327
		c1.007-0.918-0.075-1.088-0.534-0.869l-12.282,6.625l10.587-11.868c1.155-1.459-0.05-1.251-0.569-0.915l-10.679,8.318l8.929-13.508
		c0.622-1.043-0.042-1.658-0.848-0.852l-8.456,8.832l7.089-14.082c0.383-0.939-1.084-0.963-1.419-0.489L51.201,51.144
		c-0.664-2.126-2.534-4.864-6.984-4.846c-2.952,0.017-4.328,1.222-7.694,1.625c-1.667,0.182-3.425-0.066-5.707-0.28
		c-1.52-0.155-3.026-0.482-4.544-0.672C31.837,29.784,48.008,17.29,67.024,17.29"/>
	<path fill-rule="evenodd" clip-rule="evenodd" fill="#002856" d="M27.494,74.109c0,0.51-1.4,0.767-4.174,0.767
		c-0.651,0-1.599,0-2.852-0.059v-1.165h1.169c0.558,0,1.099-0.14,1.601-0.432c0.491-0.274,0.74-0.699,0.74-1.231
		c0-1.397-0.968-2.113-2.858-2.113c-0.214,0-0.425,0.05-0.651,0.068v-0.846c0.246-0.017,0.506-0.041,0.747-0.041
		c1.599,0,2.985,0.434,4.222,1.314C26.804,71.337,27.494,72.566,27.494,74.109 M20.468,83.058c0.651,0.221,1.362,0.353,2.159,0.353
		c0.909,0,1.664-0.155,2.306-0.458c0.379-0.171,0.79-0.464,1.29-0.858c0.405-0.352,0.723-0.558,0.961-0.642l0.311,0.34
		c-0.066,0.882-1.01,1.73-2.829,2.505c-1.548,0.668-2.86,1.03-3.951,1.03c-0.085,0-0.173,0-0.246-0.016V83.058z M37.399,84.712
		l-0.587,0.427h-7c-0.528,0-0.764-0.173-0.756-0.469c0.228-0.352,0.581-0.58,1.034-0.58c0.558-0.033,0.894-0.122,1.036-0.245
		c0.291-0.254,0.449-0.839,0.449-1.75V66.72c0-1.296-0.41-1.98-1.239-2.072c-0.524-0.075-0.784-0.213-0.784-0.456
		c0.466-0.265,1.139-0.539,1.991-0.837c1.021-0.344,1.708-0.6,2.054-0.764c0.712-0.318,1.066-0.46,1.066-0.46
		c0.248,0,0.383,0.427,0.383,1.305c0,0.387-0.04,0.847-0.083,1.43c-0.052,0.576-0.075,0.893-0.075,0.96v16.758
		c0,0.659,0.289,1.119,0.823,1.386C36.258,84.21,36.821,84.477,37.399,84.712 M20.468,74.817h-0.127
		c-1.307-0.057-2.293-0.107-2.915-0.107c-0.589,0-0.915,0.456-0.915,1.342c0,2.034,0.506,3.736,1.446,5.068
		c0.698,0.937,1.524,1.555,2.51,1.938v2.254c-2.24-0.057-4.062-0.769-5.508-2.168c-1.496-1.424-2.229-3.305-2.229-5.618
		c0-2.429,0.795-4.472,2.403-6.06c1.447-1.421,3.211-2.221,5.333-2.369v0.846c-0.71,0.112-1.388,0.427-2.069,0.94
		c-0.955,0.697-1.419,1.514-1.419,2.403c0,0.239,0.173,0.364,0.497,0.364h2.991V74.817z"/>
	<path fill-rule="evenodd" clip-rule="evenodd" fill="#292D53" d="M27.494,74.109c0,0.51-1.4,0.767-4.174,0.767
		c-0.67,0-1.642,0-2.979-0.059c-1.305-0.057-2.293-0.107-2.915-0.107c-0.589,0-0.915,0.456-0.915,1.342
		c0,2.034,0.506,3.736,1.446,5.068c1.123,1.52,2.672,2.291,4.669,2.291c0.911,0,1.664-0.155,2.302-0.458
		c0.383-0.173,0.793-0.464,1.294-0.858c0.405-0.352,0.723-0.558,0.961-0.642l0.311,0.34c-0.066,0.882-1.01,1.73-2.829,2.505
		c-1.548,0.668-2.86,1.03-3.951,1.03c-2.339,0-4.266-0.736-5.755-2.184c-1.498-1.424-2.229-3.305-2.229-5.618
		c0-2.429,0.791-4.472,2.403-6.06c1.607-1.59,3.644-2.409,6.08-2.409c1.599,0,2.985,0.434,4.222,1.314
		C26.804,71.337,27.494,72.566,27.494,74.109 M23.977,71.989c0-1.397-0.968-2.113-2.858-2.113c-0.937,0-1.846,0.344-2.72,1.009
		c-0.955,0.697-1.419,1.514-1.419,2.403c0,0.239,0.173,0.364,0.497,0.364h4.159c0.558,0,1.099-0.14,1.601-0.432
		C23.729,72.945,23.977,72.52,23.977,71.989 M37.399,84.712l-0.583,0.427h-7.006c-0.526,0-0.762-0.173-0.754-0.469
		c0.228-0.352,0.581-0.58,1.034-0.58c0.558-0.033,0.894-0.122,1.036-0.245c0.291-0.254,0.449-0.839,0.449-1.75V66.72
		c0-1.296-0.409-1.98-1.239-2.072c-0.526-0.075-0.784-0.213-0.784-0.458c0.464-0.263,1.139-0.537,1.991-0.837
		c1.021-0.342,1.706-0.598,2.054-0.762c0.712-0.318,1.069-0.46,1.069-0.46c0.245,0,0.379,0.427,0.379,1.305
		c0,0.387-0.04,0.847-0.083,1.43c-0.052,0.58-0.07,0.887-0.07,0.96v16.758c0,0.659,0.283,1.119,0.817,1.386
		C36.258,84.21,36.821,84.477,37.399,84.712"/>
	<path fill-rule="evenodd" clip-rule="evenodd" fill="#002856" d="M98.357,106.735v-2.087c0.574,0.214,1.227,0.333,1.967,0.333
		c0.815,0,1.512-0.132,2.092-0.405c0.342-0.18,0.73-0.444,1.178-0.808c0.368-0.342,0.685-0.508,0.878-0.587l0.28,0.287
		c-0.053,0.837-0.92,1.614-2.58,2.316c-1.399,0.63-2.613,0.95-3.616,0.95H98.357z M98.357,97.101v-1.056h1.047
		c0.528,0,1.016-0.131,1.456-0.386c0.441-0.258,0.675-0.633,0.675-1.143c0-1.273-0.874-1.905-2.604-1.905
		c-0.195,0-0.392,0-0.574,0.048v-0.784c0.215-0.02,0.443-0.02,0.664-0.02c1.445,0,2.744,0.392,3.868,1.194
		c1.237,0.86,1.862,2.011,1.862,3.394c0,0.484-1.257,0.727-3.8,0.727C100.35,97.169,99.476,97.164,98.357,97.101 M98.357,91.875
		v0.784c-0.681,0.096-1.292,0.39-1.912,0.867c-0.87,0.648-1.292,1.384-1.292,2.177c0,0.223,0.151,0.342,0.462,0.342h2.742v1.056
		h-0.123c-1.216-0.046-2.092-0.074-2.69-0.074c-0.545,0-0.802,0.401-0.802,1.22c0,1.848,0.425,3.395,1.332,4.637
		c0.589,0.849,1.353,1.436,2.284,1.763v2.087c-2.044-0.056-3.749-0.719-5.046-2.003c-1.382-1.312-2.059-3.02-2.059-5.138
		c0-2.221,0.744-4.074,2.218-5.552C94.786,92.743,96.415,92.011,98.357,91.875 M81.79,106.706v-1.857
		c0.372,0.099,0.775,0.132,1.183,0.132c1.776,0,2.639-0.598,2.639-1.8v-6.384c0-2.83-1.066-4.257-3.162-4.257
		c-0.226,0-0.434,0.018-0.661,0.04v-0.727h0.447c0.464,0,1.485,0.226,3.031,0.687l0.219-0.256v-3.371
		c0-0.839-0.385-1.255-1.156-1.288l-0.576-0.392l0.576-0.475c0.256-0.079,1.003-0.304,2.168-0.745
		c1.172-0.434,1.756-0.637,1.789-0.637c0.249,0,0.379,0.436,0.379,1.33c0,0.357-0.035,0.799-0.068,1.382
		c-0.041,0.565-0.063,0.87-0.063,0.929v14.715c0,0.534,0.156,0.915,0.455,1.095l1.308-0.832c0.103,0.27,0.19,0.386,0.19,0.386
		c0,0.465-0.611,0.966-1.796,1.558c-1.112,0.525-1.949,0.794-2.47,0.794c-0.153,0-0.307-0.243-0.469-0.719
		c-0.197-0.584-0.311-0.889-0.361-0.979c-0.077,0.046-0.721,0.418-1.912,1.13C82.963,106.467,82.401,106.656,81.79,106.706
		 M81.79,91.855v0.727c-1.148,0.173-2.087,0.87-2.799,2.026c-0.67,1.167-1.012,2.556-1.012,4.111c0,1.677,0.381,3.123,1.194,4.277
		c0.666,0.973,1.54,1.616,2.617,1.853v1.857c-0.167,0-0.342,0.029-0.532,0.029c-1.899,0-3.465-0.711-4.732-2.087
		c-1.242-1.417-1.892-3.077-1.892-4.998c0-2.107,0.745-3.929,2.221-5.477C78.227,92.723,79.854,91.969,81.79,91.855 M50.067,106.503
		v-0.73c0.096-0.037,0.201-0.053,0.333-0.079c0.552-0.052,0.911-0.127,1.08-0.239c0.399-0.227,0.609-0.722,0.609-1.457v-6.92
		c0-0.635-0.107-1.066-0.291-1.356c-0.167-0.271-0.543-0.447-1.128-0.519c-0.373-0.05-0.578-0.156-0.604-0.366v-0.077
		c0.026-0.204,0.201-0.344,0.506-0.458c0.777-0.298,1.248-0.46,1.41-0.58c0.535-0.195,0.986-0.438,1.345-0.723
		c0.225-0.197,0.477-0.386,0.716-0.574c0.366-0.307,0.611-0.454,0.723-0.454c0.246,0,0.348,0.383,0.348,1.13v11.316
		c0,0.622,0.39,1.018,1.134,1.178c0.78,0.17,1.154,0.349,1.154,0.574c0,0.249-0.175,0.379-0.528,0.379h-6.559
		C50.235,106.546,50.139,106.523,50.067,106.503 M50.067,105.572c0.167-0.116,0.267-0.17,0.285-0.25
		c-0.075-0.059-0.166-0.12-0.285-0.183V105.572z M55.301,88.371c0,0.471-0.156,0.869-0.519,1.185
		c-0.331,0.331-0.738,0.506-1.207,0.506c-0.48,0-0.88-0.175-1.227-0.506c-0.364-0.317-0.526-0.736-0.526-1.205
		c0-0.504,0.162-0.896,0.526-1.235c0.348-0.333,0.747-0.508,1.227-0.508c0.497,0,0.885,0.175,1.237,0.541
		C55.145,87.469,55.301,87.903,55.301,88.371 M74.387,106.166l-0.567,0.379H67.3l-0.528-0.414c0.523-0.21,1.04-0.412,1.537-0.675
		c0.504-0.201,0.745-0.64,0.745-1.281v-6.746c0-2.462-1.02-3.708-3.073-3.708c-0.885,0-1.64,0.247-2.242,0.733
		c-0.659,0.532-0.981,1.25-0.981,2.157v7.523c0,0.664,0.263,1.123,0.749,1.323c0.51,0.263,1.029,0.486,1.538,0.71l-0.539,0.379
		h-6.491l-0.572-0.414c0.204-0.346,0.535-0.519,1.003-0.559c0.44-0.005,0.736-0.081,0.883-0.191c0.27-0.245,0.403-0.843,0.403-1.809
		v-7.247c0-0.581-0.171-0.968-0.482-1.189c-0.129-0.055-0.414-0.11-0.846-0.18c-0.294-0.046-0.469-0.197-0.469-0.412
		c0.335-0.37,1.763-1.382,4.326-3.044c0.398,0.313,0.556,1.224,0.473,2.76c0.44-0.123,0.907-0.42,1.426-0.909
		c0.502-0.488,0.933-0.839,1.231-0.999c0.607-0.318,1.397-0.497,2.393-0.497c1.244,0,2.276,0.366,3.06,1.11
		c0.837,0.734,1.233,1.743,1.233,2.976v8.193c0,0.652,0.259,1.095,0.758,1.323C73.338,105.694,73.862,105.942,74.387,106.166
		 M34.382,111.544c-0.074,0.153-0.19,0.28-0.346,0.37v-0.671L34.382,111.544z M50.067,94.759v0.077v-0.033V94.759z M50.067,105.139
		c-0.212-0.103-0.434-0.158-0.697-0.191c-0.385-0.04-0.618-0.119-0.701-0.215c-0.182-0.188-0.28-0.6-0.28-1.224V93.351
		c0-0.628-0.14-0.928-0.449-0.928c-1.332-0.064-2.762-0.072-4.341-0.072l-0.539,0.372c0.539,0.219,1.091,0.469,1.634,0.729
		c0.431,0.214,0.648,0.685,0.648,1.458v7.716c0,1.515-1.036,2.298-3.158,2.298c-2.087,0-3.132-0.955-3.132-2.804v-8.519
		c0-0.846-0.714-1.25-2.131-1.25h-0.99h-0.885h-0.793l-0.215,0.147v0.388c0.42,0.178,0.826,0.372,1.233,0.565
		c0.534,0.214,0.762,0.668,0.762,1.307c0,0.394-0.04,1.181-0.101,2.348c-0.075,1.172-0.122,2.113-0.122,2.764
		c0,4.588,1.45,6.864,4.35,6.864c0.894,0,1.758-0.298,2.637-0.913c1.036-0.686,1.776-1.09,2.238-1.174
		c0.147,0.136,0.235,0.403,0.235,0.806v0.846c0.046,0.379,0.197,0.574,0.429,0.574c0.396,0,1.229-0.195,2.551-0.611
		c0.878-0.276,1.491-0.502,1.818-0.692V105.139z M50.067,105.773v0.73c-0.178-0.036-0.282-0.174-0.282-0.372
		C49.786,105.96,49.889,105.848,50.067,105.773 M34.036,111.914c-0.58,0.441-1.772,0.646-3.579,0.646
		c-3.294,0-5.727-0.832-7.258-2.497v-3.896h0.013c2.162,0,3.9-1.039,5.234-3.171c1.169-1.82,1.743-3.87,1.743-6.152
		c0-2.374-0.666-4.492-1.989-6.36c-1.349-1.912-3.005-2.919-5-3.119v-0.836c2.895,0,5.387,0.94,7.492,2.843
		c2.159,1.971,3.259,4.395,3.259,7.238c0,2.645-0.606,4.674-1.794,6.116c-0.777,0.959-2.019,1.812-3.71,2.538
		c-1.691,0.725-2.7,1.26-3.025,1.625c0.427,1.262,1.413,2.319,3.025,3.198c1.5,0.817,3.022,1.231,4.512,1.231
		c0.386,0,0.758-0.037,1.073-0.107l0.005,0.032V111.914z M34.036,92.499l-0.311,0.225c0.107,0.059,0.225,0.098,0.311,0.164V92.499z
		 M23.199,110.062c-0.767-0.856-1.312-1.934-1.64-3.237c-2.654-0.524-4.818-1.686-6.437-3.438c-1.772-1.894-2.65-4.133-2.65-6.778
		c0-2.928,1.078-5.344,3.2-7.264c2.076-1.892,4.558-2.818,7.527-2.818v0.836c-0.219-0.009-0.418-0.037-0.648-0.037
		c-2.102,0-3.723,0.964-4.89,2.889c-0.948,1.632-1.423,3.561-1.423,5.828c0,2.38,0.569,4.544,1.693,6.566
		c1.341,2.37,3.127,3.555,5.267,3.555V110.062z"/>
	<path fill-rule="evenodd" clip-rule="evenodd" fill="#292D53" d="M34.382,111.544c-0.351,0.678-1.664,1.016-3.925,1.016
		c-5.02,0-7.968-1.907-8.898-5.734c-2.652-0.524-4.818-1.686-6.437-3.438c-1.772-1.894-2.65-4.133-2.65-6.778
		c0-2.928,1.078-5.344,3.2-7.264c2.076-1.892,4.558-2.818,7.527-2.818c2.895,0,5.387,0.94,7.492,2.843
		c2.159,1.971,3.259,4.395,3.259,7.238c0,2.645-0.606,4.674-1.794,6.116c-0.777,0.959-2.019,1.812-3.71,2.538
		c-1.691,0.725-2.7,1.26-3.025,1.625c0.427,1.262,1.413,2.319,3.025,3.198c1.5,0.817,3.022,1.231,4.512,1.231
		c0.386,0,0.758-0.037,1.073-0.107L34.382,111.544z M30.188,96.844c0-2.374-0.666-4.492-1.989-6.36
		c-1.481-2.091-3.366-3.156-5.648-3.156c-2.102,0-3.723,0.964-4.89,2.889c-0.948,1.632-1.423,3.561-1.423,5.828
		c0,2.38,0.569,4.544,1.693,6.566c1.341,2.37,3.127,3.555,5.28,3.555c2.162,0,3.9-1.039,5.234-3.171
		C29.614,101.176,30.188,99.125,30.188,96.844 M50.352,105.322c-0.085,0.245-0.793,0.558-2.103,0.942
		c-1.321,0.416-2.155,0.611-2.551,0.611c-0.232,0-0.383-0.195-0.429-0.574v-0.846c0-0.403-0.088-0.67-0.235-0.806
		c-0.462,0.084-1.202,0.488-2.238,1.174c-0.88,0.615-1.743,0.913-2.637,0.913c-2.9,0-4.35-2.277-4.35-6.864
		c0-0.651,0.046-1.592,0.118-2.764c0.064-1.167,0.105-1.954,0.105-2.348c0-0.639-0.228-1.093-0.762-1.307
		c-0.497-0.252-1.018-0.51-1.544-0.729l0.526-0.372h0.793h0.881h0.994c1.417,0,2.131,0.403,2.131,1.25v8.519
		c0,1.849,1.045,2.804,3.132,2.804c2.122,0,3.158-0.784,3.158-2.298V94.91c0-0.773-0.217-1.244-0.648-1.458
		c-0.548-0.252-1.095-0.51-1.634-0.729l0.539-0.372c1.579,0,3.009,0.007,4.341,0.074c0.309,0,0.449,0.298,0.449,0.926v10.158
		c0,0.624,0.098,1.036,0.28,1.224c0.083,0.096,0.317,0.175,0.701,0.215C49.767,104.981,50.093,105.127,50.352,105.322
		 M55.299,88.371c0,0.471-0.155,0.869-0.517,1.185c-0.331,0.331-0.738,0.506-1.207,0.506c-0.48,0-0.88-0.175-1.227-0.506
		c-0.364-0.317-0.526-0.736-0.526-1.205c0-0.504,0.162-0.896,0.526-1.235c0.348-0.333,0.747-0.508,1.227-0.508
		c0.491,0,0.885,0.175,1.237,0.541C55.145,87.469,55.299,87.903,55.299,88.371 M57.403,106.166c0,0.249-0.175,0.379-0.528,0.379
		h-6.559c-0.348,0-0.53-0.131-0.53-0.414c0-0.239,0.206-0.396,0.615-0.438c0.552-0.052,0.911-0.127,1.08-0.239
		c0.399-0.227,0.609-0.722,0.609-1.457v-6.92c0-0.635-0.107-1.066-0.291-1.356c-0.167-0.273-0.543-0.447-1.128-0.519
		c-0.392-0.05-0.604-0.177-0.604-0.399c0-0.225,0.167-0.383,0.506-0.503c0.777-0.298,1.248-0.46,1.41-0.58
		c0.535-0.195,0.986-0.438,1.345-0.723c0.225-0.197,0.477-0.386,0.716-0.572c0.366-0.309,0.611-0.456,0.723-0.456
		c0.246,0,0.348,0.383,0.348,1.13v11.316c0,0.622,0.39,1.018,1.134,1.178C57.029,105.762,57.403,105.942,57.403,106.166
		 M74.387,106.166l-0.567,0.379H67.3l-0.528-0.414c0.523-0.21,1.04-0.412,1.537-0.675c0.504-0.201,0.745-0.64,0.745-1.281v-6.746
		c0-2.462-1.02-3.708-3.073-3.708c-0.885,0-1.64,0.247-2.242,0.733c-0.659,0.532-0.981,1.25-0.981,2.157v7.523
		c0,0.664,0.263,1.123,0.749,1.323c0.51,0.263,1.029,0.486,1.538,0.71l-0.539,0.379h-6.491l-0.572-0.414
		c0.204-0.346,0.535-0.519,0.999-0.559c0.444-0.005,0.74-0.081,0.887-0.191c0.27-0.245,0.403-0.843,0.403-1.809v-7.247
		c0-0.578-0.171-0.968-0.48-1.189c-0.131-0.055-0.416-0.11-0.848-0.18c-0.294-0.046-0.469-0.197-0.469-0.412
		c0.335-0.37,1.763-1.377,4.326-3.044c0.398,0.313,0.556,1.224,0.473,2.76c0.44-0.123,0.907-0.42,1.426-0.909
		c0.502-0.488,0.933-0.837,1.231-0.999c0.607-0.318,1.397-0.497,2.393-0.497c1.244,0,2.276,0.366,3.06,1.11
		c0.837,0.734,1.233,1.743,1.233,2.976v8.193c0,0.652,0.259,1.095,0.758,1.323C73.338,105.694,73.862,105.942,74.387,106.166
		 M90.489,104.383c0,0.465-0.611,0.966-1.8,1.558c-1.108,0.525-1.945,0.794-2.466,0.794c-0.153,0-0.307-0.243-0.469-0.719
		c-0.197-0.584-0.311-0.889-0.361-0.979c-0.077,0.046-0.721,0.418-1.912,1.13c-0.64,0.379-1.424,0.569-2.223,0.569
		c-1.899,0-3.465-0.711-4.732-2.087c-1.246-1.417-1.892-3.077-1.892-4.998c0-2.107,0.745-3.929,2.221-5.477
		c1.478-1.549,3.274-2.319,5.381-2.319c0.464,0,1.485,0.226,3.031,0.687l0.219-0.256v-3.371c0-0.839-0.385-1.255-1.156-1.288
		l-0.576-0.392l0.576-0.475c0.256-0.079,1.003-0.304,2.168-0.745c1.172-0.434,1.756-0.637,1.789-0.637
		c0.249,0,0.379,0.436,0.379,1.33c0,0.357-0.035,0.799-0.068,1.382c-0.041,0.565-0.063,0.87-0.063,0.929v14.715
		c0,0.534,0.153,0.915,0.455,1.095l1.308-0.832C90.403,104.267,90.489,104.383,90.489,104.383 M85.613,103.182v-6.384
		c0-2.83-1.066-4.257-3.162-4.257c-1.456,0-2.612,0.701-3.46,2.067c-0.67,1.167-1.012,2.556-1.012,4.111
		c0,1.677,0.381,3.123,1.194,4.277c0.894,1.325,2.19,1.986,3.8,1.986C84.749,104.981,85.613,104.383,85.613,103.182 M104.752,96.442
		c0,0.484-1.257,0.727-3.8,0.727c-0.627,0-1.535-0.005-2.718-0.068c-1.216-0.046-2.092-0.074-2.69-0.074
		c-0.545,0-0.802,0.401-0.802,1.22c0,1.848,0.425,3.395,1.332,4.637c0.992,1.402,2.396,2.096,4.251,2.096
		c0.815,0,1.512-0.132,2.092-0.405c0.342-0.18,0.73-0.444,1.178-0.808c0.368-0.342,0.685-0.508,0.878-0.587l0.28,0.287
		c-0.053,0.837-0.92,1.614-2.58,2.316c-1.399,0.63-2.613,0.95-3.616,0.95c-2.137,0-3.896-0.663-5.245-2.003
		c-1.375-1.312-2.059-3.02-2.059-5.138c0-2.221,0.744-4.074,2.21-5.552c1.471-1.481,3.342-2.188,5.56-2.188
		c1.445,0,2.744,0.392,3.868,1.194C104.126,93.908,104.752,95.06,104.752,96.442 M101.535,94.515c0-1.273-0.874-1.905-2.604-1.905
		c-0.85,0-1.669,0.302-2.486,0.915c-0.87,0.648-1.292,1.384-1.292,2.177c0,0.223,0.151,0.342,0.462,0.342h3.784
		c0.534,0,1.021-0.131,1.461-0.386C101.301,95.401,101.535,95.025,101.535,94.515"/>
	<path fill="#292D53" d="M37.257,116.929c0.346,0.226,0.872,0.408,1.423,0.408c0.823,0,1.301-0.431,1.301-1.075
		c0-0.561-0.331-0.907-1.18-1.214c-1.008-0.365-1.645-0.918-1.645-1.778c0-0.97,0.804-1.685,2.023-1.685
		c0.62,0,1.1,0.143,1.356,0.307l-0.212,0.65c-0.191-0.118-0.604-0.3-1.172-0.3c-0.839,0-1.174,0.519-1.174,0.931
		c0,0.593,0.396,0.876,1.24,1.206c1.051,0.425,1.583,0.931,1.583,1.824c0,0.979-0.703,1.809-2.19,1.809
		c-0.583,0-1.251-0.191-1.575-0.407L37.257,116.929z"/>
	<polygon fill="#292D53" points="42.702,111.693 42.702,114.284 45.726,114.284 45.726,111.693 46.545,111.693 46.545,117.909 
		45.726,117.909 45.726,114.985 42.702,114.985 42.702,117.909 41.894,117.909 41.894,111.693 	"/>
	<path fill="#292D53" d="M50.358,118.011c-1.649,0-2.806-1.262-2.806-3.153c0-1.999,1.229-3.274,2.888-3.274
		c1.719,0,2.823,1.293,2.823,3.147C53.262,116.864,51.954,118.011,50.358,118.011 M50.395,117.359c1.275,0,1.993-1.183,1.993-2.58
		c0-1.242-0.646-2.538-1.993-2.538c-1.33,0-1.986,1.241-1.986,2.593c0,1.305,0.708,2.525,1.978,2.525H50.395z"/>
	<path fill="#292D53" d="M54.3,111.763c0.381-0.066,0.887-0.122,1.539-0.122c0.793,0,1.371,0.188,1.737,0.508
		c0.346,0.304,0.556,0.746,0.556,1.306c0,0.56-0.153,1.012-0.484,1.338c-0.427,0.444-1.108,0.67-1.884,0.67
		c-0.258,0-0.48-0.004-0.666-0.052v2.497H54.3V111.763z M55.097,114.761c0.175,0.061,0.408,0.066,0.666,0.066
		c0.99,0,1.573-0.482,1.573-1.325c0-0.832-0.583-1.224-1.481-1.224c-0.35,0-0.618,0.039-0.758,0.061V114.761z"/>
	<path fill="#292D53" d="M59.212,111.763c0.388-0.066,0.896-0.122,1.553-0.122c0.778,0,1.358,0.188,1.745,0.508
		c0.329,0.304,0.556,0.746,0.556,1.306c0,0.56-0.175,1.012-0.5,1.338c-0.436,0.444-1.124,0.67-1.901,0.67
		c-0.241,0-0.464-0.004-0.651-0.052v2.497h-0.801V111.763z M60.012,114.761c0.188,0.061,0.41,0.066,0.666,0.066
		c0.985,0,1.564-0.482,1.564-1.325c0-0.832-0.58-1.224-1.47-1.224c-0.35,0-0.616,0.039-0.76,0.061V114.761z"/>
	<rect x="64.114" y="111.696" fill="#292D53" width="0.812" height="6.213"/>
	<path fill="#292D53" d="M66.328,117.909v-6.213h0.891l1.982,3.138c0.456,0.733,0.83,1.368,1.106,2.03h0.033
		c-0.075-0.848-0.084-1.602-0.084-2.58v-2.588h0.753v6.213h-0.812l-1.982-3.165c-0.427-0.695-0.847-1.397-1.134-2.074l-0.044,0.005
		c0.05,0.78,0.072,1.535,0.072,2.574v2.659H66.328z"/>
	<path fill="#292D53" d="M77.164,117.62c-0.357,0.151-1.071,0.365-1.916,0.365c-0.957,0-1.734-0.239-2.328-0.83
		c-0.541-0.513-0.874-1.345-0.874-2.321c0-1.857,1.292-3.226,3.371-3.226c0.72,0,1.288,0.164,1.559,0.306l-0.201,0.646
		c-0.333-0.175-0.742-0.267-1.38-0.267c-1.505,0-2.508,0.941-2.508,2.51c0,1.577,0.963,2.504,2.416,2.504
		c0.53,0,0.876-0.07,1.067-0.16v-1.859h-1.257v-0.653h2.05V117.62z"/>
	<path fill="#292D53" d="M80.344,111.763c0.39-0.066,0.893-0.122,1.546-0.122c0.789,0,1.375,0.188,1.743,0.508
		c0.338,0.304,0.558,0.746,0.558,1.306c0,0.56-0.162,1.012-0.501,1.338c-0.409,0.444-1.115,0.67-1.899,0.67
		c-0.23,0-0.469-0.004-0.648-0.052v2.497h-0.798V111.763z M81.142,114.761c0.179,0.061,0.418,0.066,0.666,0.066
		c0.979,0,1.559-0.482,1.559-1.325c0-0.832-0.58-1.224-1.468-1.224c-0.339,0-0.616,0.039-0.757,0.061V114.761z"/>
	<polygon fill="#292D53" points="85.25,111.693 86.069,111.693 86.069,117.238 88.724,117.238 88.724,117.909 85.25,117.909 	"/>
	<path fill="#292D53" d="M90.649,115.966l-0.651,1.943h-0.826l2.116-6.216h0.968l2.122,6.216h-0.854l-0.672-1.943H90.649z
		 M92.692,115.32l-0.622-1.783c-0.127-0.42-0.234-0.777-0.311-1.152h-0.031c-0.079,0.376-0.191,0.762-0.304,1.139l-0.607,1.796
		H92.692z"/>
	<polygon fill="#292D53" points="94.875,117.44 98.323,112.385 98.323,112.355 95.166,112.355 95.166,111.693 99.372,111.693 
		99.372,112.16 95.929,117.205 95.929,117.238 99.409,117.238 99.409,117.909 94.875,117.909 	"/>
	<path fill="#292D53" d="M101.412,115.966l-0.65,1.943h-0.83l2.111-6.216h0.97l2.129,6.216h-0.861l-0.657-1.943H101.412z
		 M103.452,115.32l-0.618-1.783c-0.127-0.42-0.23-0.777-0.328-1.152h-0.005c-0.107,0.376-0.199,0.762-0.315,1.139l-0.616,1.796
		H103.452z"/>
</g>
<g>
</g>
<g>
</g>
<g>
</g>
<g>
</g>
<g>
</g>
<g>
</g>
<g>
</g>
<g>
</g>
<g>
</g>
<g>
</g>
<g>
</g>
<g>
</g>
<g>
</g>
<g>
</g>
<g>
</g>
</svg>
